<svg xmlns="http://www.w3.org/2000/svg" xmlns:xlink="http://www.w3.org/1999/xlink" viewBox="0 0 4800 2700"><defs><style>.cls-1{fill:none;}.cls-2{isolation:isolate;}.cls-3{fill:url(#linear-gradient);}.cls-4{clip-path:url(#clip-path);}.cls-20,.cls-21,.cls-24,.cls-5,.cls-6,.cls-78,.cls-79,.cls-80,.cls-81,.cls-93{mix-blend-mode:color-dodge;}.cls-5{fill:url(#radial-gradient);}.cls-7{fill:url(#linear-gradient-2);}.cls-8{fill:url(#linear-gradient-3);}.cls-9{fill:url(#linear-gradient-4);}.cls-10{fill:url(#linear-gradient-5);}.cls-11{fill:url(#linear-gradient-6);}.cls-12{fill:url(#linear-gradient-7);}.cls-13{fill:url(#linear-gradient-8);}.cls-14{fill:url(#linear-gradient-9);}.cls-15{fill:url(#linear-gradient-10);}.cls-16{fill:url(#linear-gradient-11);}.cls-17{fill:url(#linear-gradient-12);}.cls-150,.cls-18,.cls-19,.cls-22,.cls-23,.cls-25,.cls-26,.cls-27,.cls-28,.cls-29,.cls-30,.cls-31,.cls-32,.cls-33,.cls-34,.cls-35,.cls-36{mix-blend-mode:screen;}.cls-18{fill:url(#radial-gradient-2);}.cls-150,.cls-19,.cls-22,.cls-23{opacity:0.56;}.cls-19{fill:url(#linear-gradient-13);}.cls-20{fill:url(#linear-gradient-14);}.cls-21{fill:url(#linear-gradient-15);}.cls-22{fill:url(#linear-gradient-16);}.cls-23{fill:url(#linear-gradient-17);}.cls-24{fill:url(#linear-gradient-18);}.cls-25{fill:url(#linear-gradient-19);}.cls-26{fill:url(#linear-gradient-20);}.cls-27{fill:url(#linear-gradient-21);}.cls-28{fill:url(#linear-gradient-22);}.cls-29{fill:url(#linear-gradient-23);}.cls-30{fill:url(#linear-gradient-24);}.cls-31{fill:url(#linear-gradient-25);}.cls-32{fill:url(#linear-gradient-26);}.cls-33{fill:url(#linear-gradient-27);}.cls-34{fill:url(#linear-gradient-28);}.cls-35{fill:url(#linear-gradient-29);}.cls-36{fill:url(#linear-gradient-30);}.cls-37{fill:#111216;}.cls-38{fill:#686868;}.cls-39{fill:#3d3c3b;}.cls-40,.cls-46{fill:#5525af;}.cls-41{fill:#2f1751;}.cls-42{fill:#362c29;}.cls-43{fill:#8b1138;}.cls-44{fill:url(#linear-gradient-31);}.cls-45{fill:url(#linear-gradient-32);}.cls-46,.cls-93{opacity:0.4;}.cls-47{fill:#000622;}.cls-48{fill:url(#linear-gradient-33);}.cls-49{fill:#241734;}.cls-50{fill:url(#linear-gradient-34);}.cls-51{fill:url(#linear-gradient-35);}.cls-52{fill:#e11d4a;}.cls-53{fill:url(#linear-gradient-36);}.cls-54{fill:url(#linear-gradient-37);}.cls-55{fill:#f57385;}.cls-56{fill:url(#linear-gradient-38);}.cls-57{fill:url(#linear-gradient-39);}.cls-58{fill:url(#linear-gradient-40);}.cls-59{fill:url(#linear-gradient-41);}.cls-60{fill:url(#linear-gradient-42);}.cls-61{fill:url(#linear-gradient-43);}.cls-62{fill:url(#Áåçûìÿííûé_ãðàäèåíò_40);}.cls-63{fill:#d7d9db;}.cls-64{fill:url(#Áåçûìÿííûé_ãðàäèåíò_34);}.cls-65{fill:#e3e5e6;}.cls-66{fill:url(#Áåçûìÿííûé_ãðàäèåíò_13);}.cls-67{fill:#d9dbdd;}.cls-68{fill:url(#Áåçûìÿííûé_ãðàäèåíò_34-2);}.cls-69{fill:url(#linear-gradient-44);}.cls-70{fill:url(#linear-gradient-45);}.cls-71{fill:url(#linear-gradient-46);}.cls-72{fill:url(#linear-gradient-47);}.cls-73{fill:url(#linear-gradient-48);}.cls-74{fill:url(#Áåçûìÿííûé_ãðàäèåíò_40-2);}.cls-75{fill:url(#Áåçûìÿííûé_ãðàäèåíò_34-3);}.cls-76{fill:url(#Áåçûìÿííûé_ãðàäèåíò_13-2);}.cls-77{fill:url(#Áåçûìÿííûé_ãðàäèåíò_34-4);}.cls-78{fill:url(#radial-gradient-3);}.cls-79{fill:url(#radial-gradient-4);}.cls-80{fill:url(#radial-gradient-5);}.cls-81{fill:url(#radial-gradient-6);}.cls-82{fill:url(#linear-gradient-49);}.cls-83{fill:url(#linear-gradient-50);}.cls-84{fill:url(#linear-gradient-51);}.cls-85{fill:url(#linear-gradient-52);}.cls-86{fill:url(#linear-gradient-53);}.cls-87{fill:url(#linear-gradient-54);}.cls-88{fill:url(#linear-gradient-55);}.cls-89{fill:url(#linear-gradient-56);}.cls-90{fill:url(#linear-gradient-57);}.cls-91{fill:url(#linear-gradient-58);}.cls-92{fill:url(#linear-gradient-59);}.cls-94{fill:url(#linear-gradient-60);}.cls-95{fill:url(#linear-gradient-61);}.cls-96{fill:url(#linear-gradient-62);}.cls-97{fill:url(#linear-gradient-63);}.cls-98{fill:url(#linear-gradient-64);}.cls-99{fill:url(#linear-gradient-65);}.cls-100{fill:url(#linear-gradient-66);}.cls-101{fill:url(#linear-gradient-67);}.cls-102{fill:url(#linear-gradient-68);}.cls-103{fill:url(#linear-gradient-69);}.cls-104{fill:url(#linear-gradient-70);}.cls-105{fill:#32333d;}.cls-106{fill:#e6a376;}.cls-107{fill:#137697;}.cls-108{fill:#778489;}.cls-109{fill:#abbec5;}.cls-110{fill:#738085;}.cls-111{fill:#78858a;}.cls-112{fill:#7c8a8f;}.cls-113{fill:#818f94;}.cls-114{fill:#859499;}.cls-115{fill:#8a999e;}.cls-116{fill:#8e9da3;}.cls-117{fill:#93a2a8;}.cls-118{fill:#97a7ad;}.cls-119{fill:#9bacb3;}.cls-120{fill:#a0b1b8;}.cls-121{fill:#376a80;}.cls-122{fill:#396e85;}.cls-123{fill:#3b7189;}.cls-124{fill:#3d758d;}.cls-125{fill:#3f7992;}.cls-126{fill:#417c96;}.cls-127{fill:#43809b;}.cls-128{fill:#44849f;}.cls-129{fill:#35667c;}.cls-130{fill:#336377;}.cls-131{fill:#315f73;}.cls-132{fill:#336277;}.cls-133{fill:#8979cc;}.cls-134{fill:#498dab;}.cls-135{fill:#cccecc;}.cls-136{fill:#eaeaea;}.cls-137{fill:#c484ee;}.cls-138{fill:#a895df;}.cls-139,.cls-157{opacity:0.3;}.cls-139{fill:url(#radial-gradient-7);}.cls-140{fill:#d38f62;}.cls-141{fill:#1e292e;}.cls-142{fill:#12191c;}.cls-143{fill:#d1d3d4;}.cls-144{fill:#86a9b7;}.cls-145{fill:#efb185;}.cls-146{fill:#bbbbbc;}.cls-147{fill:#9a9a9b;}.cls-148{fill:#fff;}.cls-149{fill:#6d4900;}.cls-150{fill:url(#linear-gradient-71);}.cls-151{fill:url(#linear-gradient-72);}.cls-152{fill:url(#linear-gradient-73);}.cls-153{fill:url(#linear-gradient-74);}.cls-154{fill:url(#linear-gradient-75);}.cls-155{fill:url(#linear-gradient-76);}.cls-156{fill:#eba298;}.cls-157{fill:url(#radial-gradient-8);}.cls-158{font-size:148.06px;font-family:OpenSans-Bold, Open Sans;font-weight:700;}.cls-158,.cls-159{fill:#ffc7c5;}.cls-159{font-size:102.72px;font-family:OpenSans-SemiBold, Open Sans;font-weight:600;}</style><linearGradient id="linear-gradient" x1="2400" y1="-97.39" x2="2400" y2="2998.02" gradientUnits="userSpaceOnUse"><stop offset="0" stop-color="#3c1578"/><stop offset="0.26" stop-color="#240f4f"/><stop offset="0.54" stop-color="#06071d"/></linearGradient><clipPath id="clip-path"><rect class="cls-1" width="4800" height="2700"/></clipPath><radialGradient id="radial-gradient" cx="1719.4" cy="12416.91" r="1147.01" gradientTransform="matrix(-3.13, 0.07, -0.13, -1.81, 10319.91, 23485.81)" gradientUnits="userSpaceOnUse"><stop offset="0.01" stop-color="#fff"/><stop offset="0.1" stop-color="#e0dede" stop-opacity="0.86"/><stop offset="0.29" stop-color="#a6a3a2" stop-opacity="0.6"/><stop offset="0.47" stop-color="#77726f" stop-opacity="0.39"/><stop offset="0.63" stop-color="#524b48" stop-opacity="0.22"/><stop offset="0.78" stop-color="#37302c" stop-opacity="0.1"/><stop offset="0.9" stop-color="#271f1b" stop-opacity="0.03"/><stop offset="0.99" stop-color="#211915" stop-opacity="0"/></radialGradient><linearGradient id="linear-gradient-2" x1="5481.13" y1="-1111.16" x2="6489.78" y2="-1111.16" gradientTransform="matrix(0.85, -0.52, 1.02, 0.55, -802.07, 4286.43)" gradientUnits="userSpaceOnUse"><stop offset="0" stop-color="#07bbe2"/><stop offset="1" stop-color="#fff" stop-opacity="0"/></linearGradient><linearGradient id="linear-gradient-3" x1="5481.13" y1="-1111.16" x2="6489.78" y2="-1111.16" xlink:href="#linear-gradient-2"/><linearGradient id="linear-gradient-4" x1="5481.13" y1="-1111.16" x2="6489.78" y2="-1111.16" xlink:href="#linear-gradient-2"/><linearGradient id="linear-gradient-5" x1="5481.13" y1="-1111.16" x2="6489.79" y2="-1111.16" xlink:href="#linear-gradient-2"/><linearGradient id="linear-gradient-6" x1="5481.13" y1="-1111.16" x2="6489.79" y2="-1111.16" xlink:href="#linear-gradient-2"/><linearGradient id="linear-gradient-7" x1="5481.13" y1="-1111.16" x2="6489.79" y2="-1111.16" xlink:href="#linear-gradient-2"/><linearGradient id="linear-gradient-8" x1="5481.13" y1="-1111.16" x2="6489.78" y2="-1111.16" xlink:href="#linear-gradient-2"/><linearGradient id="linear-gradient-9" x1="5481.13" y1="-1111.16" x2="6489.78" y2="-1111.16" xlink:href="#linear-gradient-2"/><linearGradient id="linear-gradient-10" x1="5481.13" y1="-1111.16" x2="6489.78" y2="-1111.16" xlink:href="#linear-gradient-2"/><linearGradient id="linear-gradient-11" x1="5481.13" y1="-1111.16" x2="6489.79" y2="-1111.16" xlink:href="#linear-gradient-2"/><linearGradient id="linear-gradient-12" x1="5481.13" y1="-1111.16" x2="6489.79" y2="-1111.16" xlink:href="#linear-gradient-2"/><radialGradient id="radial-gradient-2" cx="4620.69" cy="-2126.3" r="1388.29" gradientTransform="matrix(0.82, 0, 0.01, 0.01, -1294.43, 1042.35)" gradientUnits="userSpaceOnUse"><stop offset="0.01" stop-color="#ffde17"/><stop offset="0.1" stop-color="#e0c217" stop-opacity="0.86"/><stop offset="0.29" stop-color="#a68f16" stop-opacity="0.6"/><stop offset="0.47" stop-color="#776516" stop-opacity="0.39"/><stop offset="0.63" stop-color="#524415" stop-opacity="0.22"/><stop offset="0.78" stop-color="#372d15" stop-opacity="0.1"/><stop offset="0.9" stop-color="#271e15" stop-opacity="0.03"/><stop offset="0.99" stop-color="#211915" stop-opacity="0"/></radialGradient><linearGradient id="linear-gradient-13" x1="2992.92" y1="953.8" x2="4181.69" y2="153.12" gradientUnits="userSpaceOnUse"><stop offset="0" stop-color="#f9a39f" stop-opacity="0"/><stop offset="0.13" stop-color="#e08ca9" stop-opacity="0.18"/><stop offset="0.34" stop-color="#b969b8" stop-opacity="0.47"/><stop offset="0.54" stop-color="#994cc5" stop-opacity="0.7"/><stop offset="0.72" stop-color="#8338ce" stop-opacity="0.86"/><stop offset="0.86" stop-color="#752cd3" stop-opacity="0.96"/><stop offset="0.95" stop-color="#7027d5"/></linearGradient><linearGradient id="linear-gradient-14" x1="6345.92" y1="-1140.2" x2="7573.15" y2="-1140.2" gradientTransform="matrix(0.85, -0.52, 1.02, 0.55, -880.2, 5212.06)" gradientUnits="userSpaceOnUse"><stop offset="0" stop-color="#2484c6" stop-opacity="0"/><stop offset="1" stop-color="#2484c6"/></linearGradient><linearGradient id="linear-gradient-15" x1="6955.45" y1="-1339.47" x2="8182.68" y2="-1339.47" xlink:href="#linear-gradient-14"/><linearGradient id="linear-gradient-16" x1="3338.55" y1="1164.06" x2="4739.74" y2="285.76" xlink:href="#linear-gradient-13"/><linearGradient id="linear-gradient-17" x1="3557.82" y1="801.24" x2="4869.14" y2="-7.61" gradientUnits="userSpaceOnUse"><stop offset="0" stop-color="#f9a39f" stop-opacity="0"/><stop offset="0.18" stop-color="#d482ad" stop-opacity="0.27"/><stop offset="0.38" stop-color="#b162bb" stop-opacity="0.53"/><stop offset="0.56" stop-color="#9548c6" stop-opacity="0.73"/><stop offset="0.72" stop-color="#8136ce" stop-opacity="0.88"/><stop offset="0.86" stop-color="#742bd3" stop-opacity="0.97"/><stop offset="0.95" stop-color="#7027d5"/></linearGradient><linearGradient id="linear-gradient-18" x1="6903.33" y1="-1513.93" x2="8130.56" y2="-1513.93" xlink:href="#linear-gradient-14"/><linearGradient id="linear-gradient-19" x1="4356.35" y1="-446.38" x2="5272.19" y2="-446.38" gradientTransform="matrix(0.87, -0.5, 1, 0.58, -2591.46, 4830.81)" gradientUnits="userSpaceOnUse"><stop offset="0.58"/><stop offset="0.69" stop-color="#070707"/><stop offset="0.84" stop-color="#191919"/><stop offset="0.84" stop-color="#1a1a1a"/><stop offset="1"/></linearGradient><linearGradient id="linear-gradient-20" x1="4148.34" y1="-534.62" x2="5987.49" y2="-534.62" xlink:href="#linear-gradient-19"/><linearGradient id="linear-gradient-21" x1="4689.84" y1="-432.1" x2="5386.75" y2="-432.1" xlink:href="#linear-gradient-19"/><linearGradient id="linear-gradient-22" x1="4527.3" y1="-446.1" x2="5146.49" y2="-446.1" xlink:href="#linear-gradient-19"/><linearGradient id="linear-gradient-23" x1="2214.68" y1="-562.29" x2="6390.1" y2="-562.29" xlink:href="#linear-gradient-19"/><linearGradient id="linear-gradient-24" x1="4530.28" y1="-548.41" x2="5345.41" y2="-548.41" xlink:href="#linear-gradient-19"/><linearGradient id="linear-gradient-25" x1="3893.93" y1="-442.81" x2="5365.42" y2="-442.81" xlink:href="#linear-gradient-19"/><linearGradient id="linear-gradient-26" x1="4601.08" y1="-439.57" x2="7128.48" y2="-439.57" xlink:href="#linear-gradient-19"/><linearGradient id="linear-gradient-27" x1="4541.06" y1="-403.08" x2="5302.1" y2="-403.08" xlink:href="#linear-gradient-19"/><linearGradient id="linear-gradient-28" x1="4151.94" y1="-446.58" x2="5487.02" y2="-446.58" xlink:href="#linear-gradient-19"/><linearGradient id="linear-gradient-29" x1="4610.19" y1="-438.11" x2="6311.47" y2="-438.11" xlink:href="#linear-gradient-19"/><linearGradient id="linear-gradient-30" x1="4569.92" y1="-431.32" x2="5384.51" y2="-431.32" xlink:href="#linear-gradient-19"/><linearGradient id="linear-gradient-31" x1="2998.58" y1="770.3" x2="3522.04" y2="770.3" gradientUnits="userSpaceOnUse"><stop offset="0" stop-color="#e11d4a"/><stop offset="0.04" stop-color="#dc1c49"/><stop offset="0.6" stop-color="#a2143d"/><stop offset="0.87" stop-color="#8b1138"/></linearGradient><linearGradient id="linear-gradient-32" x1="3133.18" y1="687.46" x2="3572.87" y2="687.46" xlink:href="#linear-gradient-31"/><linearGradient id="linear-gradient-33" x1="2330.82" y1="1143.08" x2="2427.96" y2="1143.08" xlink:href="#linear-gradient-31"/><linearGradient id="linear-gradient-34" x1="1691.77" y1="1870.04" x2="1827.31" y2="1870.04" gradientUnits="userSpaceOnUse"><stop offset="0.01" stop-color="#757473"/><stop offset="0.02" stop-color="#787777"/><stop offset="0.04" stop-color="#787777"/><stop offset="0.16" stop-color="#787777"/><stop offset="0.33" stop-color="#737271"/><stop offset="0.33" stop-color="#737271"/><stop offset="0.6" stop-color="#5a5958"/><stop offset="0.78" stop-color="#545352"/><stop offset="0.91" stop-color="#4a4947"/><stop offset="0.94" stop-color="#3a3937"/><stop offset="0.97" stop-color="#2c2b2a"/><stop offset="1" stop-color="#272625"/></linearGradient><linearGradient id="linear-gradient-35" x1="983.48" y1="1794.67" x2="983.48" y2="1836.59" xlink:href="#linear-gradient-31"/><linearGradient id="linear-gradient-36" x1="981.9" y1="1965.97" x2="1096.02" y2="2203.68" xlink:href="#linear-gradient-31"/><linearGradient id="linear-gradient-37" x1="994.92" y1="1836.12" x2="1130.05" y2="2077.54" xlink:href="#linear-gradient-31"/><linearGradient id="linear-gradient-38" x1="878.41" y1="1871.37" x2="969.87" y2="2134.62" gradientUnits="userSpaceOnUse"><stop offset="0" stop-color="#e11d4a"/><stop offset="0.25" stop-color="#de1d49"/><stop offset="0.42" stop-color="#d51b47"/><stop offset="0.57" stop-color="#c51944"/><stop offset="0.71" stop-color="#b01640"/><stop offset="0.83" stop-color="#93123a"/><stop offset="0.87" stop-color="#8b1138"/></linearGradient><linearGradient id="linear-gradient-39" x1="1405.87" y1="2412.3" x2="1459.63" y2="2412.3" xlink:href="#linear-gradient-38"/><linearGradient id="linear-gradient-40" x1="1750.21" y1="2405.4" x2="1182.51" y2="2112.9" xlink:href="#linear-gradient-31"/><linearGradient id="linear-gradient-41" x1="1381.1" y1="2277.09" x2="1438.78" y2="2505.74" gradientUnits="userSpaceOnUse"><stop offset="0" stop-color="#e11d4a"/><stop offset="0.16" stop-color="#da1c49"/><stop offset="0.39" stop-color="#c61944"/><stop offset="0.67" stop-color="#a6153e"/><stop offset="0.87" stop-color="#8b1138"/></linearGradient><linearGradient id="linear-gradient-42" x1="1438.81" y1="2306.93" x2="1466.41" y2="2397.97" xlink:href="#linear-gradient-38"/><linearGradient id="linear-gradient-43" x1="1926.03" y1="1885.67" x2="2384.71" y2="1885.67" xlink:href="#linear-gradient-31"/><linearGradient id="Áåçûìÿííûé_ãðàäèåíò_40" x1="-6788.28" y1="-15279.78" x2="-6921.35" y2="-15510.27" gradientTransform="matrix(0.92, -0.04, -0.05, -1.06, 7641.94, -14498.98)" gradientUnits="userSpaceOnUse"><stop offset="0.13" stop-color="#dbe0e3"/><stop offset="0.13" stop-color="#e0e5e8"/><stop offset="0.44" stop-color="#e0e5e8"/><stop offset="0.44" stop-color="#c0c4c6"/><stop offset="0.84" stop-color="#c0c4c6"/><stop offset="0.84" stop-color="#a8abad"/></linearGradient><linearGradient id="Áåçûìÿííûé_ãðàäèåíò_34" x1="-6789.61" y1="-15297.84" x2="-6908.46" y2="-15503.7" gradientTransform="matrix(0.92, -0.04, -0.05, -1.06, 7641.94, -14498.98)" gradientUnits="userSpaceOnUse"><stop offset="0.16" stop-color="#797b7d"/><stop offset="0.16" stop-color="#919496"/><stop offset="0.56" stop-color="#919496"/><stop offset="0.56" stop-color="#b1b5b8"/><stop offset="0.87" stop-color="#b1b5b8"/><stop offset="0.87" stop-color="#acb0b3"/></linearGradient><linearGradient id="Áåçûìÿííûé_ãðàäèåíò_13" x1="-6830.82" y1="-15310.77" x2="-6913.96" y2="-15454.76" gradientTransform="matrix(0.92, -0.04, -0.05, -1.06, 7641.94, -14498.98)" gradientUnits="userSpaceOnUse"><stop offset="0.13" stop-color="#acb0b3"/><stop offset="0.13" stop-color="#b1b5b8"/><stop offset="0.44" stop-color="#b1b5b8"/><stop offset="0.44" stop-color="#919496"/><stop offset="0.84" stop-color="#919496"/><stop offset="0.84" stop-color="#797b7d"/></linearGradient><linearGradient id="Áåçûìÿííûé_ãðàäèåíò_34-2" x1="-6837.52" y1="-15360.74" x2="-6875.47" y2="-15426.48" xlink:href="#Áåçûìÿííûé_ãðàäèåíò_34"/><linearGradient id="linear-gradient-44" x1="2155.65" y1="1586.4" x2="2401.6" y2="1586.4" xlink:href="#linear-gradient-31"/><linearGradient id="linear-gradient-45" x1="2164.17" y1="1543.85" x2="2268.53" y2="1543.85" xlink:href="#linear-gradient-31"/><linearGradient id="linear-gradient-46" x1="2268.53" y1="1542.08" x2="2641.78" y2="1542.08" xlink:href="#linear-gradient-31"/><linearGradient id="linear-gradient-47" x1="1910.5" y1="1291.22" x2="2126.63" y2="1291.22" xlink:href="#linear-gradient-31"/><linearGradient id="linear-gradient-48" x1="1839.33" y1="1380.82" x2="1984.26" y2="1380.82" xlink:href="#linear-gradient-31"/><linearGradient id="Áåçûìÿííûé_ãðàäèåíò_40-2" x1="-5143.3" y1="-14520.47" x2="-5276.37" y2="-14750.95" xlink:href="#Áåçûìÿííûé_ãðàäèåíò_40"/><linearGradient id="Áåçûìÿííûé_ãðàäèåíò_34-3" x1="-5144.63" y1="-14538.53" x2="-5263.48" y2="-14744.38" xlink:href="#Áåçûìÿííûé_ãðàäèåíò_34"/><linearGradient id="Áåçûìÿííûé_ãðàäèåíò_13-2" x1="-5185.84" y1="-14551.45" x2="-5268.98" y2="-14695.45" xlink:href="#Áåçûìÿííûé_ãðàäèåíò_13"/><linearGradient id="Áåçûìÿííûé_ãðàäèåíò_34-4" x1="-5192.54" y1="-14601.42" x2="-5230.49" y2="-14667.16" xlink:href="#Áåçûìÿííûé_ãðàäèåíò_34"/><radialGradient id="radial-gradient-3" cx="1472.87" cy="19154.53" r="566.16" gradientTransform="matrix(-1.62, 0, -0.07, -0.11, 6302.82, 3729.94)" xlink:href="#radial-gradient"/><radialGradient id="radial-gradient-4" cx="2306" cy="24036.21" r="566.16" gradientTransform="matrix(-1.62, 0, -0.07, -0.11, 6274.24, 4593.3)" xlink:href="#radial-gradient"/><radialGradient id="radial-gradient-5" cx="4294.01" cy="-20893.09" r="566.16" gradientTransform="matrix(0, -1.62, 0.11, -0.07, 3498.58, 7900.82)" xlink:href="#radial-gradient"/><radialGradient id="radial-gradient-6" cx="1515.78" cy="28341.11" r="566.16" gradientTransform="matrix(-1.62, 0, -0.07, -0.11, 5722.36, 5200.98)" xlink:href="#radial-gradient"/><linearGradient id="linear-gradient-49" x1="4223.03" y1="-125.5" x2="5231.69" y2="-125.5" xlink:href="#linear-gradient-2"/><linearGradient id="linear-gradient-50" x1="4223.03" y1="-125.5" x2="5231.69" y2="-125.5" xlink:href="#linear-gradient-2"/><linearGradient id="linear-gradient-51" x1="4223.03" y1="-125.5" x2="5231.69" y2="-125.5" xlink:href="#linear-gradient-2"/><linearGradient id="linear-gradient-52" x1="4223.03" y1="-125.5" x2="5231.69" y2="-125.5" xlink:href="#linear-gradient-2"/><linearGradient id="linear-gradient-53" x1="4223.03" y1="-125.5" x2="5231.69" y2="-125.5" xlink:href="#linear-gradient-2"/><linearGradient id="linear-gradient-54" x1="4223.03" y1="-125.5" x2="5231.69" y2="-125.5" xlink:href="#linear-gradient-2"/><linearGradient id="linear-gradient-55" x1="4223.03" y1="-125.5" x2="5231.69" y2="-125.5" xlink:href="#linear-gradient-2"/><linearGradient id="linear-gradient-56" x1="4223.03" y1="-125.5" x2="5231.69" y2="-125.5" xlink:href="#linear-gradient-2"/><linearGradient id="linear-gradient-57" x1="4223.03" y1="-125.5" x2="5231.69" y2="-125.5" xlink:href="#linear-gradient-2"/><linearGradient id="linear-gradient-58" x1="4223.03" y1="-125.5" x2="5231.69" y2="-125.5" xlink:href="#linear-gradient-2"/><linearGradient id="linear-gradient-59" x1="4223.03" y1="-125.5" x2="5231.69" y2="-125.5" xlink:href="#linear-gradient-2"/><linearGradient id="linear-gradient-60" x1="5268.13" y1="-358.14" x2="6276.79" y2="-358.14" xlink:href="#linear-gradient-2"/><linearGradient id="linear-gradient-61" x1="5268.13" y1="-358.14" x2="6276.79" y2="-358.14" xlink:href="#linear-gradient-2"/><linearGradient id="linear-gradient-62" x1="5268.13" y1="-358.14" x2="6276.79" y2="-358.14" xlink:href="#linear-gradient-2"/><linearGradient id="linear-gradient-63" x1="5268.13" y1="-358.14" x2="6276.79" y2="-358.14" xlink:href="#linear-gradient-2"/><linearGradient id="linear-gradient-64" x1="5268.13" y1="-358.14" x2="6276.79" y2="-358.14" xlink:href="#linear-gradient-2"/><linearGradient id="linear-gradient-65" x1="5268.13" y1="-358.14" x2="6276.79" y2="-358.14" xlink:href="#linear-gradient-2"/><linearGradient id="linear-gradient-66" x1="5268.13" y1="-358.14" x2="6276.79" y2="-358.14" xlink:href="#linear-gradient-2"/><linearGradient id="linear-gradient-67" x1="5268.13" y1="-358.14" x2="6276.79" y2="-358.14" xlink:href="#linear-gradient-2"/><linearGradient id="linear-gradient-68" x1="5268.13" y1="-358.14" x2="6276.79" y2="-358.14" xlink:href="#linear-gradient-2"/><linearGradient id="linear-gradient-69" x1="5268.13" y1="-358.14" x2="6276.79" y2="-358.14" xlink:href="#linear-gradient-2"/><linearGradient id="linear-gradient-70" x1="5268.13" y1="-358.14" x2="6276.79" y2="-358.14" xlink:href="#linear-gradient-2"/><radialGradient id="radial-gradient-7" cx="4178.47" cy="2337.34" r="930.61" gradientUnits="userSpaceOnUse"><stop offset="0" stop-color="#fff"/><stop offset="0.05" stop-color="#e6e5e4" stop-opacity="0.89"/><stop offset="0.15" stop-color="#b8b5b4" stop-opacity="0.68"/><stop offset="0.26" stop-color="#908c8a" stop-opacity="0.5"/><stop offset="0.37" stop-color="#6e6866" stop-opacity="0.34"/><stop offset="0.48" stop-color="#524c48" stop-opacity="0.22"/><stop offset="0.59" stop-color="#3c3532" stop-opacity="0.12"/><stop offset="0.71" stop-color="#2d2522" stop-opacity="0.05"/><stop offset="0.84" stop-color="#241c18" stop-opacity="0.01"/><stop offset="0.99" stop-color="#211915" stop-opacity="0"/></radialGradient><linearGradient id="linear-gradient-71" x1="1140.94" y1="-511.12" x2="1140.94" y2="1756.02" gradientUnits="userSpaceOnUse"><stop offset="0" stop-color="#f9a39f"/><stop offset="0.01" stop-color="#f5a0a0"/><stop offset="0.09" stop-color="#d280ae"/><stop offset="0.17" stop-color="#b464ba"/><stop offset="0.27" stop-color="#9b4ec4"/><stop offset="0.38" stop-color="#883ccc"/><stop offset="0.5" stop-color="#7a30d1"/><stop offset="0.66" stop-color="#7229d4"/><stop offset="0.95" stop-color="#7027d5"/></linearGradient><linearGradient id="linear-gradient-72" x1="12626.51" y1="1008.68" x2="11676.89" y2="36.97" gradientTransform="matrix(-1, 0, 0, 1, 14140.54, 0)" xlink:href="#linear-gradient-71"/><linearGradient id="linear-gradient-73" x1="12850.46" y1="975.96" x2="11900.84" y2="4.25" gradientTransform="matrix(-1, 0, 0, 1, 14140.54, 0)" xlink:href="#linear-gradient-71"/><linearGradient id="linear-gradient-74" x1="14127.28" y1="2276.25" x2="13177.66" y2="1304.54" gradientTransform="matrix(-1, 0, 0, 1, 14140.54, 0)" xlink:href="#linear-gradient-71"/><linearGradient id="linear-gradient-75" x1="14264.58" y1="2142.07" x2="13314.96" y2="1170.37" gradientTransform="matrix(-1, 0, 0, 1, 14140.54, 0)" xlink:href="#linear-gradient-71"/><linearGradient id="linear-gradient-76" x1="14217.42" y1="1165.81" x2="13267.8" y2="194.1" gradientTransform="matrix(-1, 0, 0, 1, 14140.54, 0)" xlink:href="#linear-gradient-71"/><radialGradient id="radial-gradient-8" cx="3805.5" cy="2519.45" r="723.18" gradientUnits="userSpaceOnUse"><stop offset="0.01" stop-color="#fff"/><stop offset="0.1" stop-color="#e0dede" stop-opacity="0.86"/><stop offset="0.29" stop-color="#a6a3a2" stop-opacity="0.6"/><stop offset="0.47" stop-color="#77726f" stop-opacity="0.39"/><stop offset="0.64" stop-color="#524b48" stop-opacity="0.22"/><stop offset="0.78" stop-color="#37302c" stop-opacity="0.1"/><stop offset="0.91" stop-color="#271f1b" stop-opacity="0.03"/><stop offset="1" stop-color="#211915" stop-opacity="0"/></radialGradient></defs><g class="cls-2"><g id="Layer_2" data-name="Layer 2"><rect class="cls-3" width="4800" height="2700"/></g><g id="Layer_1" data-name="Layer 1"><g class="cls-4"><ellipse class="cls-5" cx="3343.55" cy="1160.85" rx="3594.32" ry="2075.84" transform="translate(-91.93 2011.95) rotate(-33.06)"/><g class="cls-6"><polygon class="cls-7" points="2796.05 697.93 2760.69 719.71 2768.05 851.79 2803.41 830.02 2796.05 697.93"/><polygon class="cls-8" points="2866.02 654.86 2830.66 676.63 2838.01 808.71 2873.37 786.94 2866.02 654.86"/><polygon class="cls-9" points="2935.98 611.78 2900.62 633.55 2907.98 765.64 2943.34 743.87 2935.98 611.78"/><polygon class="cls-10" points="3005.95 568.7 2970.59 590.47 2977.95 722.56 3013.31 700.79 3005.95 568.7"/><polygon class="cls-11" points="3075.92 525.63 3040.56 547.4 3047.91 679.48 3083.27 657.71 3075.92 525.63"/><polygon class="cls-12" points="3145.89 482.55 3110.52 504.32 3117.88 636.4 3153.24 614.63 3145.89 482.55"/><polygon class="cls-13" points="3215.85 439.47 3180.49 461.24 3187.85 593.33 3223.21 571.55 3215.85 439.47"/><polygon class="cls-14" points="3285.82 396.39 3250.46 418.16 3257.81 550.25 3293.18 528.48 3285.82 396.39"/><polygon class="cls-15" points="3355.79 353.31 3320.43 375.08 3327.78 507.17 3363.14 485.4 3355.79 353.31"/><polygon class="cls-16" points="3425.75 310.24 3390.39 332.01 3397.75 464.09 3433.11 442.32 3425.75 310.24"/><polygon class="cls-17" points="3495.72 267.16 3460.36 288.93 3467.72 421.02 3503.08 399.24 3495.72 267.16"/></g><ellipse class="cls-18" cx="2478.34" cy="1013.77" rx="1146.71" ry="17.79" transform="translate(-174.9 1374.62) rotate(-29.99)"/><polygon class="cls-19" points="4088.74 251.24 3215.32 788.99 3214.92 768.77 4088.34 231.01 4088.74 251.24"/><polygon class="cls-20" points="4400.4 633.9 3375.67 1264.82 3375.2 1241.09 4399.93 610.17 4400.4 633.9"/><polygon class="cls-21" points="4717 204.97 3692.27 835.88 3691.79 812.15 4716.52 181.24 4717 204.97"/><polygon class="cls-22" points="4603.64 388.8 3578.91 1019.71 3578.43 995.98 4603.16 365.07 4603.64 388.8"/><polygon class="cls-23" points="4770.11 66.07 3745.37 696.99 3744.9 673.25 4769.63 42.34 4770.11 66.07"/><polygon class="cls-24" points="4495.38 136.54 3470.65 767.45 3470.18 743.72 4494.91 112.81 4495.38 136.54"/><polygon class="cls-25" points="1357.84 2047.03 1361.42 2049.09 1519 1931.79 1514.23 1929.04 1357.84 2047.03"/><polygon class="cls-26" points="1330.64 2031.33 1334.52 2033.56 1993.69 1490.56 1984.12 1485.03 1330.64 2031.33"/><polygon class="cls-27" points="1374.29 2056.53 1378.24 2058.8 1631.15 1881.98 1625.18 1878.54 1374.29 2056.53"/><polygon class="cls-28" points="1350.79 2042.96 1355.48 2045.66 1417.18 1998.7 1411.87 1995.64 1350.79 2042.96"/><polygon class="cls-29" points="1330.85 2031.44 1342.34 2038.08 2305.39 1267.91 2269.62 1247.26 1330.85 2031.44"/><polygon class="cls-30" points="1277.43 2000.61 1282.26 2003.39 1459.72 1824.35 1452.74 1820.32 1277.43 2000.61"/><polygon class="cls-31" points="1363.05 2050.04 1371.57 2054.95 1604.56 1887.97 1591.95 1880.69 1363.05 2050.04"/><polygon class="cls-32" points="1400.53 2071.68 1405.58 2074.59 3112.97 995.77 3091.29 983.25 1400.53 2071.68"/><polygon class="cls-33" points="1395.2 2068.6 1399.92 2071.33 1594.75 1945.62 1588.23 1941.86 1395.2 2068.6"/><polygon class="cls-34" points="1365.72 2051.58 1372.55 2055.52 1700.18 1821.57 1688.75 1814.97 1365.72 2051.58"/><polygon class="cls-35" points="1391.66 2066.55 1396.54 2069.37 2410.27 1407.09 2395.68 1398.67 1391.66 2066.55"/><polygon class="cls-36" points="1374.57 2056.69 1379.19 2059.36 1630.83 1884.05 1623.85 1880.02 1374.57 2056.69"/><polygon class="cls-37" points="3123.79 930.98 3211.55 868.12 3369.74 950.44 3369.74 1046.09 3270.26 1258.58 3236.26 1349.72 3116.38 1276.8 3123.79 930.98"/><path class="cls-37" d="M2713.31,990.18c91.13-52.62,165-180,165-284.61,0-60.26,75.26-36.77,75.26-36.77-9-12.25-158.4-96.81-171.57-102.48-29-12.47-66.93-8.29-108.55,15.73-91.13,52.62-165,180-165,284.61,0,25,4.31,46.22,11.95,63.62.19.53.41,1.06.62,1.59s.43,1,.66,1.49c14.25,34,51.07,54.95,74.59,68.52,14.54,8.39,117,61.37,117,61.37C2733.54,1061.73,2689.81,1003.74,2713.31,990.18Z"/><ellipse class="cls-38" cx="2820.36" cy="857.39" rx="232.63" ry="134.3" transform="translate(656.77 2859.5) rotate(-59.69)"/><path class="cls-37" d="M2722.53,964.11s-7-46.13,18.13-99.49c0,0,60.67-17.63,89.45-41.88,0,0,11.07-20.54,29.2-33.72s38.75-20.13,61.6-18.72l11.81,4.71s-5.44-52.32,7.75-62.2l169.73,106.7L3154.28,876,3117.2,905.2Z"/><path class="cls-39" d="M2896.38,844l24.53,120.14,33.56-7.11-13.59-83.11,110,63.67L3101.49,911l-168.77-80.41A41,41,0,0,0,2896.38,844Z"/><polygon class="cls-37" points="2940.47 930.98 2927.69 868.12 2937.96 874.2 2946.75 927.65 2940.47 930.98"/><polygon class="cls-40" points="2947.35 635.77 2920.91 681.61 2995.34 857.74 3007.18 864.63 3113.5 820 3139.94 774.16 3243.75 478.34 3231.94 471.48 2947.35 635.77"/><polygon class="cls-41" points="2959.2 642.62 2932.72 688.41 3007.18 864.63 3033.63 879.87 3125.38 826.83 3151.88 781.04 3270.26 493.58 3243.75 478.34 2959.2 642.62"/><polygon class="cls-37" points="3283.63 873.2 3133.28 786.34 3041.77 839.13 3192.16 925.96 3257.71 963.84 3411.5 1052.6 3502.94 999.77 3349.18 911.02 3283.63 873.2"/><polygon class="cls-40" points="3041.77 839.13 3082.56 843.97 3093.7 806.81 3041.77 814.34 3041.77 839.13"/><polygon class="cls-41" points="3041.77 814.34 3192.16 901.17 3283.63 848.38 3133.28 761.55 3041.77 814.34"/><polygon class="cls-42" points="3411.5 1027.81 3411.5 1052.6 3502.94 999.77 3502.94 974.95 3442.93 990.1 3411.5 1027.81"/><polygon class="cls-40" points="3257.71 938.99 3257.71 963.84 3322.65 969.9 3311.97 930.98 3257.71 938.99"/><polygon class="cls-41" points="3257.71 938.99 3411.5 1027.81 3502.94 974.95 3349.18 886.2 3257.71 938.99"/><polygon class="cls-43" points="2998.58 707.93 2998.58 724.09 3368.25 937.56 3522.04 848.77 3522.04 832.64 3465.51 833.56 2998.58 707.93"/><polygon class="cls-44" points="2998.58 707.93 3368.25 921.43 3522.04 832.64 3152.28 619.18 2998.58 707.93"/><polygon class="cls-43" points="3133.18 617.1 3502.94 830.56 3572.87 790.07 3572.87 773.95 3133.18 600.97 3133.18 617.1"/><polygon class="cls-45" points="3133.18 600.97 3502.94 814.44 3572.87 773.95 3203.11 560.48 3133.18 600.97"/><polygon class="cls-40" points="3328.93 856.09 3302.49 901.9 3376.94 1078.06 3388.82 1084.94 3495.11 1040.33 3521.55 994.45 3625.39 698.6 3613.55 691.77 3328.93 856.09"/><polygon class="cls-41" points="3340.77 862.94 3314.33 908.76 3388.82 1084.94 3415.26 1100.16 3506.98 1047.15 3533.45 1001.3 3651.83 713.87 3625.39 698.6 3340.77 862.94"/><path class="cls-41" d="M3236.26,1082.77l-24.71,66.12-.58.68-.56.65-.34.41-.82.95-.49.58c-1.64,1.94-4,4.72-7.11,8.3l-1.91,2.23-2.08,2.42c-1.07,1.26-2.23,2.59-3.42,4l-5.08,5.9c-60.7,70.27-234.75,268.88-396.94,427-106.69,104-208.27,190.48-269.09,211.35-175.14,60.07-354.37,15.15-354.37,15.15l-267.3-335.34-62.2-110s-13.41-61.79,12.66-96.4,197.3-89,316.84-108.74q10.75-1.79,20.63-3.34c95.19-15.28,133.6-18.5,195.58-49.74,5.35-2.69,10.87-5.59,16.63-8.74,77-42,264.91-155.72,264.91-155.72l453.57-65.5s30.91,7.41,32.14,58.09,7.53,73.5,43.26,94.76c16.09,9.56,26,17.62,31.95,23.57C3234.73,1078.61,3236.26,1082.77,3236.26,1082.77Z"/><path class="cls-46" d="M2420.19,1190l-94.78,43.15,0-20.6c.83-35.41-42.84-37.08-42.84-37.08s-75.8,41.22-116.29,53.15-76.51,30.91-82.27,54.8-39.55,69.22-39.55,69.22l4.94-47.19c-2.47-29.92-.83-52.53,48.6-61.58s114.53-49.45,114.53-49.45l-23.11-19.79c95.19-15.28,133.6-18.5,195.58-49.74Z"/><path class="cls-47" d="M2370.64,1170.43s15.31,42.93,81.22,52.4l-14-28.84s148.71-98.87,158.19-147.9l-98.46,67.57,28.31-6.08-108.23,63.75Z"/><path class="cls-41" d="M2340.22,1096.2s63.44-29.1,116.18-51.34,125.24-27.6,125.24-27.6l28.83,26-186.11,141.66-84.14-63Z"/><path class="cls-48" d="M2352.34,1156.16l54.1,31.23c11.84,6.84,21.52-.49,21.52-16.27h0c0-15.78-9.68-34.29-21.52-41.12l-54.1-31.24c-11.84-6.83-21.52.49-21.52,16.28h0C2330.82,1130.82,2340.5,1149.32,2352.34,1156.16Z"/><polygon class="cls-47" points="1827.69 1301.11 1827.69 1517.39 1780.76 1539.48 1778.29 1279.27 1798.88 1270.62 1827.69 1301.11"/><path class="cls-47" d="M1880.86,1432.53l-32.13,17.71,2.47,18.13-84.86,44.49H1740l-65.09,35-12.36,25.54,5.77,23.9s7.83,10.29,28.42,4.53l209.81-132.58Z"/><path class="cls-47" d="M1842.77,1318.82s-2.69,40.13,3.49,63.86,48.73,70.08,48.73,70.08,21.44,6.8,40.53-5.69a328.28,328.28,0,0,0,30.74-22.44l-94.87-107.87Z"/><polygon class="cls-41" points="2268.53 1833.34 2467.11 1906.13 2455.16 1800.81 2268.53 1833.34"/><path class="cls-49" d="M2394,1366.41l-11.74,25.95-10.41,6.94-11-5.49s-33,6.58-47,37.08c-1.59,3.48-3.26,7-5,10.45l-26.77,17.87-155.5,103.85s20.16,2.33,23.25,28.27l-135.32-17.91-113.1-80.33-4.94-29s7.72,8.66,29.51,6.48,71.83-19.46,125-54.07,61.19-39.55,73.53-64.89,15.47-56.85,50.06-73.53,90.23-49.45,90.23-49.45-16.07,24.11-13.6,61.19c0,0,4.33-37.08,38.94-42s71.06,32.12,84.66,58.09c6,11.4,10.39,24.47,13.46,35.53A253.63,253.63,0,0,1,2394,1366.41Z"/><path class="cls-47" d="M2137.52,1859.7l74.78-36s21.75-97.86-28.06-166.66l-277.72,133.9,56.54,42.4Z"/><path class="cls-37" d="M1188.92,1871.37c91.13-52.62,165-180,165-284.61,0-60.26,75.27-36.77,75.27-36.77-9-12.25-158.4-96.81-171.58-102.48-29-12.47-66.93-8.29-108.55,15.73-91.13,52.62-165,180-165,284.61,0,25,4.31,46.22,12,63.62.2.53.41,1.06.62,1.59s.43,1,.66,1.48c14.25,34,51.07,55,74.6,68.53,14.53,8.39,117,61.37,117,61.37C1209.15,1942.92,1165.42,1884.93,1188.92,1871.37Z"/><ellipse class="cls-38" cx="1295.96" cy="1738.58" rx="232.63" ry="134.3" transform="translate(-859.01 1979.95) rotate(-59.69)"/><path class="cls-39" d="M1406.62,1804.54s-75.93,73.75-134,101.49a124.83,124.83,0,0,1-22.49,8.52s1.6-30.09-10.33-47.39l0,0a280,280,0,0,1-34.56,14.59,128.72,128.72,0,0,1-21.18,5.45,61.21,61.21,0,0,1-9.7.8l0,0c-9.87-10-11.1-22.89-7.31-34.44s24.23-15,32.87-35c5.93-13.7,4.48-29,1.94-45.45-1.16-7.48-2.54-15.18-3.58-23.07a54.6,54.6,0,0,1,1.16-21.27c2.95-11,8.71-16.56,8.71-16.56,19.63-4.26,38.29-13,57.8-25.39a.1.1,0,0,0,.07,0c.85-1,14.94-17.71,36.48-40.46,22.24-23.48,57.26-25.56,72.92-12.37s20.6,32.14,20.6,32.14,9.08,87.91-37.08,104.92C1358.89,1771,1396.67,1777.36,1406.62,1804.54Z"/><path class="cls-37" d="M1272.63,1906c3.63-11.94,1.64-27-2.71-36-6.2-12.76-14.43-16.08-14.43-16.08,11.11-13.57,7.41-35,7.41-35-24.3,8.64-51.89,48.6-51.89,48.6s-5.79,2.88-20.62,14.2a77.18,77.18,0,0,0-6.35,5.45,61.21,61.21,0,0,1-9.7.8l0,0c-9.87-10-11.1-22.89-7.31-34.44s24.23-15,32.87-35c5.93-13.7,4.48-29,1.94-45.45l45.84-46.06-48.26,1.72c2.95-11,8.71-16.56,8.71-16.56,19.63-4.26,38.29-13,57.8-25.39a.1.1,0,0,0,.07,0c.85-1,14.94-17.71,36.48-40.46,22.24-23.48,57.26-25.56,72.92-12.37s20.6,32.14,20.6,32.14,9.08,87.91-37.08,104.92c0,0,37.78,6.32,47.73,33.5C1406.62,1804.54,1330.69,1878.29,1272.63,1906Z"/><path class="cls-37" d="M1435.71,1804.54l-9.61,8.74-5.83,5.32-114.34-61v-7.48a6.45,6.45,0,0,1,.73-2.85c3.07-6.27,15-11.5,15-11.5Z"/><path class="cls-39" d="M1435.71,1804.54l-9.61,8.74-119.44-66c3.07-6.27,15-11.5,15-11.5Z"/><polygon class="cls-37" points="1305.93 1724.2 1305.93 1735.74 1569.83 1717.2 1569.83 1712.26 1305.93 1724.2"/><polygon class="cls-39" points="1591.24 1693.49 1569.82 1712.25 1452.22 1717.58 1305.93 1724.21 1330.47 1715.13 1565.52 1695.63 1591.24 1693.49"/><polygon class="cls-37" points="1490.73 1708.84 1492.78 1712.25 1452.22 1717.58 1305.93 1724.21 1330.47 1715.13 1565.52 1695.63 1490.73 1708.84"/><polygon class="cls-37" points="1351.48 1823.7 1412.98 1857.99 1412.98 1863.86 1352.34 1829.61 1351.48 1823.7"/><path class="cls-39" d="M1351.48,1823.7s-1.24-8,14.83-19.78,56.54-24.72,56.54-24.72l38.94,35.84L1413,1858Z"/><path class="cls-37" d="M1306.16,1681l192.81,110-3.3-9.06-186.62-107.94S1304.93,1675.59,1306.16,1681Z"/><polygon class="cls-39" points="1538.12 1686.82 1374.55 1677.23 1376.8 1678.59 1417.95 1703.08 1465.7 1731.52 1467.25 1732.44 1478.77 1732.44 1490.32 1729.15 1556.22 1753.86 1519.12 1771.04 1495.66 1781.89 1369.97 1709.18 1369.9 1709.15 1309.06 1673.94 1330.06 1662.01 1378.66 1657.05 1455.85 1659.83 1563.46 1663.7 1613.49 1665.49 1585.48 1689.6 1538.12 1686.82"/><polygon class="cls-37" points="1368.79 1671.47 1348.6 1685.48 1376.8 1678.59 1417.95 1703.08 1390.21 1715.13 1369.97 1709.18 1369.9 1709.15 1309.06 1673.94 1330.06 1662.01 1378.66 1657.05 1455.85 1659.83 1420.27 1673.94 1368.79 1671.47"/><polygon class="cls-37" points="1556.22 1753.86 1519.12 1771.04 1477.54 1734.5 1451.18 1746.04 1441.69 1744.39 1465.7 1731.52 1467.25 1732.44 1478.77 1732.44 1490.32 1729.15 1556.22 1753.86"/><path class="cls-37" d="M1613.49,1665.49l-28,24.11-47.36-2.79c8.13-7.47,17.69-16.24,25.34-23.11Z"/><path class="cls-38" d="M1365.09,1636.45c-29.68,1.23-56.86,23.89-80.77,42.43s-72.08,36.25-72.08,36.25c-22.27,23.48-.41,53.57-2.9,85.68s-18.52,37.52-35,49.86c-16.15,12.1-.68,36.31,0,37.32-9.87-10-11.1-22.89-7.31-34.44s24.23-15,32.87-35,1.65-43.32-1.64-68.52,9.87-37.83,9.87-37.83c19.63-4.26,38.29-13,57.8-25.39a.1.1,0,0,0,.07,0c14.48-9.19,29.43-20.47,45.55-33.47C1339.12,1631.1,1365.09,1636.45,1365.09,1636.45Z"/><path class="cls-37" d="M1239.81,1867.16l0,0a280,280,0,0,1-34.56,14.59v-48.43S1228.65,1843.27,1239.81,1867.16Z"/><path class="cls-41" d="M2179.56,1737.79c-28.8,12.61-231.92,63.22-408.92,152.77q-15.54,7.88-30.79,16.14c-36.18,19.66-70.7,41-101.75,64.07a553.23,553.23,0,0,0-44.39,36.45s-21,13.6-55.62,5.57-128.11,71.47-150.35,100.32-62.64,53.56-62.64,53.56-22.24,23.48-27.18,48.6-2.88,58.92-2.88,58.92l-45.72,31.32-9.08-3.71a169.53,169.53,0,0,1,.25-27.54l0-.07c1.26-14.57,4.62-32.61,12.93-48.19,17.3-32.56,23.88-40.79,23.88-40.79l-1.64-.67-21.42-8.81s-4.94-1.65-12.37-3.3-8.23,5.76-8.23,5.76l3.61,27.6a93.72,93.72,0,0,1-8.57,10.31c-15.22,15.66-52.72,49-80.33,43.66a48.4,48.4,0,0,1-11.16-3.51c-11.13-5.18-18.18-16.46-18.78-28.73l0-1.35a52.63,52.63,0,0,1,1.74-16.2h0a51.42,51.42,0,0,1,12-21.63q2.07-2.25,4.55-4.8c16.24-16.45,43.42-35.82,43.42-35.82s7.4-4.14,7.4-13l-12.89-7.22-16.9-9.44-13.46-7.5s-61.23,34.93-53.87,99.89l-7.48-7.55s-9.1-59.33,61.35-103c48.92-30.3,119.08-93.79,157.4-129.78,16.89-15.85,27.59-26.36,27.59-26.36l24-27.35,88.46-100.8s81.59-114.9,202.71-190.29,239.75-152,239.75-152,10-6.42,22.37.24c0,0,0,0,0,0a39.41,39.41,0,0,1,12.23,10.87,38.61,38.61,0,0,0,5.47,8.1c4.93,6,13.91,15,29.62,25.51h0c2.88,1.94,6,3.93,9.37,5.93,37.08,22.27,85.29,34.61,85.29,34.61s18.54,2.47,25.95,14.84h63l14.83,14.84s9.9,17.3,27.21,58.09S2219.11,1720.51,2179.56,1737.79Z"/><path class="cls-40" d="M2137.52,1573.42l-366.83,181.36s-93.55,31.83-138,88.68c-42.17,53.9-240.1,214.76-311,302.52,25.53-33.14,93.25-119.42,155.87-184.48,79.09-82.19,167.46-161.29,283-216.91,92.68-44.61,285.14-136.53,357.71-171.17Z"/><path class="cls-49" d="M1723.49,1780.43s-35.84,16.08-67.36,41.42l114.51,68.71c-61.14,30.93-119.15,66.51-165.79,106.76q-5.7,4.9-11.14,9.9s-21,13.6-55.62,5.57c-26.6-6.17-88,39.4-125.11,73.89-11.15,10.38-20.11,19.78-25.24,26.43-22.24,28.83-62.64,53.56-62.64,53.56s-22.24,23.48-27.18,48.6-2.88,58.92-2.88,58.92l-45.72,31.32-9.08-3.71a169.53,169.53,0,0,1,.25-27.54l0-.07,7.77,4.33s3.51-37.08,27.4-70.46,86.91-118.84,133.26-168.79,168.7-158.73,168.7-158.73,90.23-83.41,134.11-102l61.19-24.73,52.52,5-50.68,28.42Z"/><polygon class="cls-47" points="1774.61 1795.31 1759.54 1854.4 1779.11 1899.2 1803 1817.72 1783.23 1784.35 1774.61 1795.31"/><path class="cls-37" d="M1772.93,1774.46l-1.65,16.48s-.2,5.15,5.15,4.33l5.15-1,48.2,131.83,5.36,31.72,11.77-7.12-67.8-178.27Z"/><path class="cls-38" d="M1880.86,1936.38l-33.95,14.28L1833.35,1915l-41.92-110.17v0l-12.32-32.38,39.21-14.26s6.51,2.74,11.47,11.79l9.47,21-1.07,2.35-8,17.83,35.63,88.08Z"/><path class="cls-39" d="M1839.26,1790.94l-1.07,2.35c-10.45-2.76-25.27-5.89-34.37-4.41-14.83,2.4-12.53,15.23-12.39,15.9l-12.32-32.38,39.21-14.26s6.51,2.74,11.47,11.79Z"/><path class="cls-39" d="M1880.86,1936.38l-33.95,14.28L1833.35,1915a135.4,135.4,0,0,1,32.48-15.78Z"/><path class="cls-47" d="M1691.77,1807.42l-5.72-6.61s-1.28,38.75,8.6,52.75l45.2,20.19Z"/><polygon class="cls-50" points="1691.77 1807.42 1695.89 1801.24 1725.14 1790.94 1827.31 1942.55 1786.11 1949.14 1691.77 1807.42"/><polygon class="cls-39" points="1691.77 1807.42 1691.77 1814.43 1783.64 1953.37 1786.11 1949.14 1691.77 1807.42"/><path class="cls-47" d="M1739.85,1906.7c-36.18,19.66-70.7,41-101.75,64.07l-17.26-35.63s-58.83,32.53-68.32,36.26-10.7,0-10.7,0l-9.17-36.26,102.67-35-11.11-33.38,30.18-27.23Z"/><polygon class="cls-47" points="1326.76 2146.27 1326.76 2220.43 1400.4 2169.75 1403.39 2074.34 1326.76 2146.27"/><path class="cls-49" d="M1159.5,2202.08l-69.12,8.38c-11-71.16,56.75-106.84,56.75-106.84l2.69,2.45,21.69,19.72C1145.17,2152.88,1159.5,2202.08,1159.5,2202.08Z"/><path class="cls-47" d="M1159.5,2202.08l-69.12,8.38c6.27-29.53,64.18-68.52,64.18-68.52l-10.31-31.37,5.57-4.5,21.69,19.72C1145.17,2152.88,1159.5,2202.08,1159.5,2202.08Z"/><path class="cls-41" d="M1313.58,2309.21s-37.17,10.28-68.95,26.86a167.07,167.07,0,0,0-22.88,14.07,86.68,86.68,0,0,0-7.55,6.24,50.55,50.55,0,0,0-11,13.8s-116.17-38.73-160.66-73.34-67.57-58.09-67.57-58.09,3-6.27,11-14.86c2.23-2.4,4.85-5,7.87-7.62,11.16-9.81,28.12-21,53-29.29,3.27-1.11,6.7-2.15,10.26-3.15a241,241,0,0,1,25.8-5.64s48.6,69.23,103,87.36c22.8,7.59,48.94,16.5,71.59,24.27C1288.84,2300.59,1313.58,2309.21,1313.58,2309.21Z"/><path class="cls-46" d="M1313.58,2309.21s-37.17,10.28-68.95,26.86c-6.35-2-5.62-8.73-5.62-8.73-8.23-4.53-39.55-8.26-57.68-9.08s-40.37-9.46-54-16.46-10.7-21.44-10.7-21.44-22.24-14-33.76-30.06a47,47,0,0,1-8.69-32.56l-27.4-30.76c3.27-1.11,6.7-2.15,10.26-3.15a241,241,0,0,1,25.8-5.64s48.6,69.23,103,87.36c22.8,7.59,48.94,16.5,71.59,24.27C1288.84,2300.59,1313.58,2309.21,1313.58,2309.21Z"/><path class="cls-47" d="M1257.45,2289.82l-17.21,12c-21.15-26.23-80.74-35.84-80.74-35.84-32.14,4.11-63-21-72.1-32.7s-9.46-27-9.46-27l-20.87-22.39a241,241,0,0,1,25.8-5.64s48.6,69.23,103,87.36C1208.66,2273.14,1234.8,2282.05,1257.45,2289.82Z"/><path class="cls-41" d="M1813.31,2370.18l-250.89,141.71c-11.55-20.6-22.25-6.59-22.25-6.59s-5.61-2.25-12.32-5.49c-3.21-1.55-6.7-3.32-9.94-5.2C1508,2488.82,1513,2479,1513,2479c-19.77-39.55-41.19-12.37-41.19-12.37l-268.62-96.4c.9-1.36,1.84-2.69,2.84-4,43.61-57.72,175.76-78.39,175.76-78.39s319.08,47.78,373.87,48.28S1813.31,2370.18,1813.31,2370.18Z"/><path class="cls-47" d="M1542.28,2494.7s5.4-2.68,13.74,2.88l167.78-97.74s16.86-6.62,24.65-2l-8.33-18.16-161.85,77.14Z"/><path class="cls-49" d="M1562,2426.62l-25.66,8.06-12.85,4-34.83,11s-19.77-9.88-31.73-14.62-11.11-14.89-11.11-14.89l-25.75,22.1c-35.22-25.12-118-63.85-138-70.46-14.42-4.74-20.86-11.35-23.33-14.64a14,14,0,0,1-1.31-2l4.7-2,44.58-18.83,207.06,35.85Z"/><polygon class="cls-47" points="1286.59 2325.17 1445.82 2355.14 1445.82 2362.76 1288.45 2330.6 1286.59 2325.17"/><path class="cls-47" d="M1536.35,2434.68l-12.85,4c-38.92-16.84-140.5-57.51-264.74-81.54-3.53-.7-7.12-1.38-10.7-2l-4.72-5.43s6.92,1.19,18.81,3.44C1313.19,2362.89,1456,2392.61,1536.35,2434.68Z"/><path class="cls-41" d="M1082.87,2178.19s-11,3-30,9.47c-2.45.85-5,1.72-7.7,2.68-3.82,1.34-7.89,2.79-12.2,4.39-2.1.77-4.28,1.57-6.51,2.42a96.83,96.83,0,0,0-13,6c-1.82,1-3.58,2-5.28,3-2.2,1.38-4.31,2.81-6.29,4.26-2.54,1.84-4.89,3.73-7.07,5.61a109,109,0,0,0-16.14,17.19,61.61,61.61,0,0,0-3.75,5.49c-11.28-7.74-94.59-86.36-136.12-125.42-11.5-10.82-19.8-18.61-22.49-21C804,2081.19,801.48,2069,801.48,2069c-20.38,12.75-40.78-13.61-40.78-13.61-4.31-23.69-14.21-13.6-14.21-13.6-2.68-5.76,2.69-9,2.69-9L998,1889.37s4.77,15.16,11.93,37.18c14.52,44.68,38.85,117.63,53.2,150C1084.52,2124.78,1082.87,2178.19,1082.87,2178.19Z"/><path class="cls-46" d="M1032.94,2194.73c-2.1.77-4.28,1.57-6.51,2.42a96.83,96.83,0,0,0-13,6c-21.08-28.44-71.47-96.33-80.55-107.34,0,0-39.14-22.47-48.6-36.79l15.08,28.87s-11-.34-6.85,12,17.54,33,17.54,33,20.77,14,37.67,33.78c11.86,13.9,34.58,36.91,47.07,49.4a109,109,0,0,0-16.14,17.19c-12.86-13.82-39.38-42-53.13-53.83C907,2163.36,888,2138.65,888,2138.65s-21.83-6.15-33-25.32c0,0,11.37-6.9,8.76-18.76s3.6-33.79,3.6-33.79l30.89-16.07s11.23-11.28,11.78-17.3,25.27-17.31,25.27-17.31l26.7-22.24,13.53,7-19.73,21.76v9.75L940.53,2035s-16.67-5.71-13,14.91a136.21,136.21,0,0,0,12.66,37s39.26,29,61.09,60C1014.09,2165,1025.61,2183,1032.94,2194.73Z"/><path class="cls-49" d="M1052.84,2187.66c-2.45.85-5,1.72-7.7,2.68-9.92-19.33-31.2-56.24-63.51-88.77-46.25-46.55-75.08-56.45-83.33-88.78l8.47,2.78s7.6,13.92,29,31.61C955.44,2063.42,1033.67,2139.3,1052.84,2187.66Z"/><path class="cls-49" d="M1008.18,2206.2c-2.2,1.38-4.31,2.81-6.29,4.26-11.38-23.89-44.22-76.58-134.48-149.68l9.06-1.76S980.42,2147.41,1008.18,2206.2Z"/><path class="cls-49" d="M875,2019.27,838,2099.92l.85,13.41c-11.5-10.82-19.8-18.61-22.49-21C804,2081.19,801.48,2069,801.48,2069c-20.38,12.75-40.78-13.61-40.78-13.61-4.31-23.69-14.21-13.6-14.21-13.6-2.68-5.76,2.69-9,2.69-9L998,1889.37s4.77,15.16,11.93,37.18Z"/><polygon class="cls-51" points="994.85 1794.67 966.06 1836.59 991.41 1825.14 1000.89 1809.07 994.85 1794.67"/><path class="cls-52" d="M863.81,2067.49v12C852,2095.1,838,2099.92,838,2099.92a45.29,45.29,0,0,1-.92-10.26c.27-16.8,8.76-30.64,8.76-30.64Z"/><path class="cls-43" d="M863.81,2067.49v5.83c-7.22,10.8-19.51,14.84-26.77,16.34.27-16.8,8.76-30.64,8.76-30.64Z"/><path class="cls-53" d="M1061,1989.09c14,23.5,36.67,71.09,27,170.66v0c-2.2,4.45-3.51,6.89-3.51,6.89-34-116.8-130.39-179.22-130.39-179.22a139.4,139.4,0,0,0-19.38-21c-.75-.63-1.5-1.24-2.25-1.84-11.74-9.27-14.84,11.11-14.84,11.11-3.07-9.88,3.73-17.91,3.73-17.91l40.78-32.14,10.75-9.11,5.32-4.5s6.42-1.35,13.7,3.17v0a23.39,23.39,0,0,1,2.88,2c3.9,3.27,7.87,8.45,11,16.61C1005.83,1933.91,1047,1965.62,1061,1989.09Z"/><path class="cls-54" d="M1104.39,2123.16c2.08-26,1-64.12-14.52-102.34-27.59-68-78.28-94.34-78.28-94.34a107,107,0,0,0-11-14c-1-1.09-2.11-2.18-3.22-3.22a61.54,61.54,0,0,0-5.45-4.64c-6.46-4.82-13.67-7.65-20.31-4.53a14.54,14.54,0,0,0-7,7.72,31.68,31.68,0,0,0-2.3,9.44,52.57,52.57,0,0,0-.27,6.9,59.2,59.2,0,0,1-.09-6.88,53.81,53.81,0,0,1,1.18-9.51c.27-1.26.58-2.44.92-3.58l0,0c4.06-13.36,12.46-18.08,12.46-18.08,20.62-19.78,23.09-43.26,23.09-43.26,6.78-14.3,15.42-18,23-17.71a27.34,27.34,0,0,1,11.26,3.22,35.69,35.69,0,0,1,6.9,4.6l72.51,70C1158.73,1962.54,1128,2065,1104.39,2123.16Z"/><path class="cls-43" d="M1104.39,2123.16c-6.63,16.38-12.71,29.23-16.36,36.59,9.68-99.57-13-147.16-27-170.66s-55.21-55.18-55.21-55.18c-3.14-8.16-7.11-13.34-11-16.61a23.39,23.39,0,0,0-2.88-2v0c-7.28-4.52-13.7-3.17-13.7-3.17l-5.32,4.5-10.75,9.11a2.43,2.43,0,0,0,0-.25c0-.24,0-.46,0-.7a3.14,3.14,0,0,1,0-.53,52.57,52.57,0,0,1,.27-6.9,31.68,31.68,0,0,1,2.3-9.44,14.54,14.54,0,0,1,7-7.72c6.64-3.12,13.85-.29,20.31,4.53a61.54,61.54,0,0,1,5.45,4.64c1.11,1,2.2,2.13,3.22,3.22a107,107,0,0,1,11,14s50.69,26.38,78.28,94.34C1105.41,2059,1106.47,2097.14,1104.39,2123.16Z"/><path class="cls-55" d="M1034,1828.36c-2.59,10.21-7.43,23.74-16.17,33.86-12.44,14.35-23.26,29.55-25.85,42.43-6.46-4.82-13.67-7.65-20.31-4.53a14.54,14.54,0,0,0-7,7.72,31.68,31.68,0,0,0-2.3,9.44l-.36,0a53.81,53.81,0,0,1,1.18-9.51c.27-1.26.58-2.44.92-3.58l0,0a233.61,233.61,0,0,1,28.94-31.69c14.57-13,24.55-34.24,29.65-47.36A27.34,27.34,0,0,1,1034,1828.36Z"/><path class="cls-55" d="M994.82,1917.3c-15.66,12.86-46.71,38.37-60.07,49.14-.75-.63-1.5-1.24-2.25-1.84-11.74-9.27-14.84,11.11-14.84,11.11-3.07-9.88,3.73-17.91,3.73-17.91l40.78-32.14,16.07-13.61S986.45,1910.33,994.82,1917.3Z"/><path class="cls-56" d="M994.82,1828c-19.68,22.87-46.25,69.83-48.72,105.07l-35.22,27.78S905.32,1972,922,1975.71c0,0-.6,32.75-31.51,56.25a21.35,21.35,0,0,0,4.94,4.33c5.42,3.44,14.76,5.81,25.34-7,1.77-2.13,3.34-4.09,4.79-5.88,12.13-15.3,13.12-19.24,13.12-19.24s-11.11,44.48-45.72,62.39a39.93,39.93,0,0,1-6.63,5.21c-5.57,3.51-14,6.87-22.51,3.1a23.17,23.17,0,0,1-6.08-4C841,2056,765,1970.14,765,1970.14v-16.05l220.62-128.95s21.42-10.72,9.2-30.47C995.62,1795.08,1014.09,1805.63,994.82,1828Z"/><path class="cls-43" d="M832.7,1920.72l77.39,45.7s-15-10.79-20.54-20.37S875.65,1913.92,832.7,1920.72Z"/><polygon class="cls-43" points="809.84 1948.21 871.4 2016.5 866.69 2019.28 809.84 1948.21"/><path class="cls-43" d="M917.29,1974.24s-25.57,41-68.21,53.07c0,0,3,18.63-3.29,31.72l-21.32-22.83Z"/><path class="cls-43" d="M925.55,2023.39c-8.35,15.73-23.82,29.84-30.74,35.63-10.21,8.54-8.49,12.73-8.49,12.73-5.57,3.51-14,6.87-22.51,3.1,13.33-9.86,25.56-28.42,31.61-38.56,5.42,3.44,14.76,5.81,25.34-7C922.53,2027.14,924.1,2025.18,925.55,2023.39Z"/><polygon class="cls-43" points="769.05 1975.71 769.05 2055.43 816.32 2029.28 769.05 1975.71"/><polygon class="cls-52" points="765.03 1970.14 765.03 2051.72 769.05 2055.43 768.58 1974.14 765.03 1970.14"/><path class="cls-49" d="M1275.68,2184.54l-21.42-8.81s-4.94-1.65-12.37-3.3-8.23,5.76-8.23,5.76l3.61,27.6a93.72,93.72,0,0,1-8.57,10.31c-15.22,15.66-52.72,49-80.33,43.66a48.4,48.4,0,0,1-11.16-3.51c-11.13-5.18-18.18-16.46-18.78-28.73l0-1.35a52.63,52.63,0,0,1,1.74-16.2h0s-.2,23.43,27.4,25.49,73.33-65.49,73.33-65.49,1.24-7.44,14-6.2S1275.68,2184.54,1275.68,2184.54Z"/><path class="cls-46" d="M1527.85,2499.81c-3.21-1.55-6.7-3.32-9.94-5.2C1508,2488.82,1513,2479,1513,2479c-19.77-39.55-41.19-12.37-41.19-12.37l-268.62-96.4c.9-1.36,1.84-2.69,2.84-4l262.48,93s9.06-13.19,26-7,27.62,28.44,30.91,39.55C1526.14,2494.44,1527,2497.22,1527.85,2499.81Z"/><path class="cls-46" d="M1221.75,2350.14a86.68,86.68,0,0,0-7.55,6.24c-161.48-42.31-216.74-114.63-228.29-132.49,2.23-2.4,4.85-5,7.87-7.62C1061.21,2310.44,1179.08,2341.62,1221.75,2350.14Z"/><path class="cls-40" d="M1311.72,2159c2.93-4.11,6.27-8.47,10-13C1316.46,2152.76,1313,2157.31,1311.72,2159Z"/><path class="cls-47" d="M1604.85,1997.32q-5.7,4.9-11.14,9.9s-21,13.6-55.62,5.57c-26.6-6.17-88,39.4-125.11,73.89a211.56,211.56,0,0,1,34.91-52.25c33.37-36.48,51.28-48.22,77.23-43.89C1544.89,1993.84,1571.47,2005,1604.85,1997.32Z"/><path class="cls-40" d="M1906.52,1473.56c-44.66,27.08-150.72,91.75-217.64,135.71-86.5,56.85-140.89,102.57-206.38,171.79-37.11,39.19-90.21,94.66-129.27,135.37l88.46-100.8s81.59-114.9,202.71-190.29,239.75-152,239.75-152S1894.13,1466.9,1906.52,1473.56Z"/><path class="cls-38" d="M1663.76,1908.76s-9,8.52-21.66,18.25c-19,14.67-46,32-62.38,27.08l-2.59-.79a282.65,282.65,0,0,1-44.48-18.16s6-13,27.32-27.71c12.23-8.47,29.46-17.52,53.52-25l48.14,25.25Z"/><path class="cls-38" d="M1878.81,1969.73l-26.89,25.37-1.94,1.83-62-37.22-155.55-93.38-8.23.41A25.4,25.4,0,0,1,1621,1857a18.15,18.15,0,0,1,1.16-9.18s21.42-16.48,53.15-19.36v4.91l60.56,33.4-14.84,8.67,26.14,15.63h0l66.65,39.87Z"/><path class="cls-39" d="M1851.92,1995.1l-1.94,1.83-217.54-130.6-8.23.41A25.4,25.4,0,0,1,1621,1857c.87-.44,3.12-.54,8.88,2.73C1637.5,1864,1807.72,1968.08,1851.92,1995.1Z"/><path class="cls-39" d="M1705.78,1879.11l7-4.11-6.17-10.72-6.59,2.46s-11.13-8.64-30.9-12.36-27,0-27,0l-9.63-4.12c11-9.34,42.86-16.92,42.86-16.92l60.56,33.4-14.84,8.67,26.14,15.63Z"/><path class="cls-39" d="M1878.81,1969.73l-26.89,25.37-1.94,1.83-62-37.22c4.12-7.36,11.82-17.91,25.85-28.8Z"/><path class="cls-39" d="M1663.76,1908.76s-9,8.52-21.66,18.25c-11.52-4.09-30.06-10.46-48.8-15.93a90.41,90.41,0,0,0-33.33-3.65c12.23-8.47,29.46-17.52,53.52-25l48.14,25.25Z"/><path class="cls-37" d="M1663.76,1908.76s-56.86,53.56-84,45.33l-2.59-.79c4-8.11,12-18.52,27.72-25.59,18.66-8.4,42.18-15.8,56.78-20.06Z"/><polygon class="cls-38" points="1634.09 1926.07 1809.18 2017.53 1805.47 2031.95 1624.21 1931.3 1634.09 1926.07"/><polygon class="cls-39" points="1624.21 1931.3 1799.71 2039.27 1805.47 2031.95 1624.21 1931.3"/><path class="cls-57" d="M1452.22,2423.11c-.7.22-1.41.44-2.08.7-17,5.91-30.06,18.47-30.06,18.47,4.21-30.64-13.19-54.27-14.16-55.57l-.05-.05,53.76-4.33C1450.35,2405.2,1452.22,2423.11,1452.22,2423.11Z"/><path class="cls-43" d="M1452.22,2423.11c-.7.22-1.41.44-2.08.7l-44.22-37.1-.05-.05,53.76-4.33C1450.35,2405.2,1452.22,2423.11,1452.22,2423.11Z"/><path class="cls-58" d="M1776.64,2260.34l-236.05,154.73-134.72-28.41s-7.43-21.64-5-38.94c0,0,17.93-16,62.42-30.89l-2.42-.63h0c-15-3.75-95.53-23-147.3-14.4,0,0,5.76-28.85,88.56-75.8s155.73-46.57,207.64-35.66S1776.64,2260.34,1776.64,2260.34Z"/><path class="cls-59" d="M1441.09,2363.18l-35.22,23.48c-38.32-11.13-68.59-60.56-68.59-60.56,38.92-26.57,103.81-34,103.81-34-8.94,15.13-12,28-12,38.48C1428.91,2351.88,1441.09,2363.18,1441.09,2363.18Z"/><path class="cls-43" d="M1448.55,2355.14s25.9,13.6,51.24,17.92,51.29,9.27,51.29,9.27l-31.93,17.92a67.74,67.74,0,0,0,7.83,6.8c5.36,4.12,6,6.41,6,6.41l.42-16.91,63.45-37.27-40.59,20.38s-46.92-5.17-72.51-12.57S1448.55,2355.14,1448.55,2355.14Z"/><path class="cls-52" d="M1796.42,2292.12c16.07,19.15,16.89,63,16.89,63-7-1-8.66,5.56-8.66,5.56-18.54-4.55-43.26,6.59-43.26,6.59l-9.05,35.84a27.9,27.9,0,0,0-3.89-5.32c-14.7-15.69-39.79-1.29-39.79-1.29L1533.37,2500V2396.53l211.9-120.41,26.29-14.93,3.2-1.82c.75,0,1.47.05,2.2.1,4.38.22,8.4.58,12,1.06,16,2.16,24.32,6.25,24.32,6.25Z"/><path class="cls-43" d="M1754,2370.18a230.28,230.28,0,0,0-5.54,27.64c-14.7-15.69-39.79-1.29-39.79-1.29L1533.37,2500l8-32.56,161.9-93.11c2,13.19,35.84,12.37,35.84,12.37A53.42,53.42,0,0,1,1754,2370.18Z"/><path class="cls-55" d="M1771.56,2261.19c-30.47,34.95-61.77,100.85-62.88,103.15,5.71-35.28,22-66.34,36.59-88.22Z"/><path class="cls-55" d="M1789,2260.53l-55.6,82.47,43.57-83.53C1781.34,2259.69,1785.36,2260.05,1789,2260.53Z"/><path class="cls-43" d="M1683.32,2305.51l-148.23-47.05a260.08,260.08,0,0,0-92.79-12.24c-40.86,2.24-91.12,14.7-128.72,55.58,0,0,49-41.82,123.8-49.24s231.11,56.24,231.11,56.24l-80.57,44.31-22.21-5.08,16.27,8.35,12.36,4.32L1755.63,2268Z"/><path class="cls-43" d="M1441.09,2363.18l-35.22,23.48c-16-13.6-24.11-25.95-24.11-25.95,6.71-18.88,46.13-29.79,47.3-30.11C1428.91,2351.88,1441.09,2363.18,1441.09,2363.18Z"/><path class="cls-60" d="M1496.7,2309.4c-29.16,46.69-40.17,51.31-40.17,51.31l-50.66,25.95s-7.43-21.64-5-38.94c0,0,17.93-16,62.42-30.89l-2.42-.63C1481.7,2311.8,1496.7,2309.4,1496.7,2309.4Z"/><polygon class="cls-47" points="1707.42 1689.6 1696.71 1686.09 1696.71 1647.58 1969.73 1486.91 1978.09 1493.09 1707.42 1689.6"/><polygon class="cls-40" points="1707.77 1647.56 1978.09 1493.09 1978.09 1535.11 1707.42 1689.6 1707.77 1647.56"/><path class="cls-38" d="M2382.24,1392.36l-6.95,8.68-14.47-7.23s-33,6.58-47,37.08-33,62.2-33,62.2l-154.27,70c-19.49,4.58-35.49,6.44-44.1,3.56-18.35-6.12-51-25.1-79.2-42.74h0c-28.78-18-53-34.49-53-34.49l263.26-152.65s30.88-22.85,59.32-7.41c15.11,8.2,45.07,25.51,69.81,39.89C2364.47,1381.9,2382.24,1392.36,2382.24,1392.36Z"/><path class="cls-47" d="M2382.24,1392.36l-6.95,8.68-14.47-7.23s-33,6.58-47,37.08c-2.49,5.44-5.15,10.91-7.81,16.24a50.59,50.59,0,0,1-13.53-10.26c-13.65-14.5-17.09-34.33-19.66-43.28-3.7-13-13.6-8-13.6-8s-78.47,47-96.4,55.62-35.85-11.74-49.42-19.77a24.37,24.37,0,0,0-25.35,0l-113.87,68.83,29.11,33.65h0c-28.78-18-53-34.49-53-34.49l263.26-152.65s30.88-22.85,59.32-7.41c15.11,8.2,45.07,25.51,69.81,39.89C2364.47,1381.9,2382.24,1392.36,2382.24,1392.36Z"/><path class="cls-40" d="M2981.25,1047.75s-458.95,219.16-533.93,292.49c0,0-37.9,54-61.79,65.91l-10.24-5.11-3.46-1.74-11-5.49s-33,6.58-47,37.08c-1.59,3.48-3.26,7-5,10.45-.94,1.94-1.91,3.88-2.85,5.79-12.35,24.54-25.15,46-25.15,46l-154.27,70,139.43-76.14s7.07-10,16.07-27.71c3.29-6.47,6.83-14,10.39-22.34,3.05-7.12,6.07-14.91,9-23.29,5.15-14.91,21.51-30.35,41.17-44.36a430,430,0,0,1,45.62-27.84c26.36-14.13,48.33-23.38,48.33-23.38s-29.67-9.9,0-25.56,117.83-70,117.83-70S2850.24,1063.41,2981.25,1047.75Z"/><path class="cls-46" d="M2346.71,1503s26.26-55.3,38.31-70.44,38.31-19.78,55.31-22.56,26,3.19,65.91-17,267.17-147.08,267.17-147.08-25.34,11.12-22.86,0S2921.72,1118,3000.2,1097.59L2921.72,1118s75.19-46.34,137.81-52.94c0,0,.82-7.41,25.54-29.66s74.15-30.48,59.32-7.41S3025.74,1168,3025.74,1168s28-35.43,27.19-52.73c0,0-122.89,148.28-292.5,190.09,0,0-6.59-4.71,23.9-25.3s77.45-45.32,77.45-45.32l-304,157.37s-70,18.95-95.58,38.73S2380.39,1491,2346.71,1503Z"/><polygon class="cls-47" points="2145.25 1591.34 2164.17 1575.89 2184.49 1581.66 2186.96 1597.73 2176.47 1617.91 2155.65 1608.85 2145.25 1591.34"/><path class="cls-46" d="M2263.28,1724.51l123.59,21.94-66.74,15.14v43.88s-95.16-13-114.63,0l3.4-33.37,25.34,10.5,6.49-8s31.51,8.34,47-1.55l-44.18-18.23-.62-5.25s-25.19-8-31.45-30l-1.3-18.21s56.23,0,70.45,3.09,27.19.31,45.72,2.78,38.32.62,51.3.31,41.4,7.41,41.4,7.41l-182.3.31,7.42,15.45,40.78,29.36.62-15.45Z"/><polygon class="cls-49" points="2255.56 1670.75 2225.89 1692.38 2373.28 1690.53 2383.89 1678.89 2255.56 1670.75"/><path class="cls-46" d="M2446.5,1718.64h-14.21v-49.13a62,62,0,0,1,11.14,12.68C2455.16,1701.34,2446.5,1718.64,2446.5,1718.64Z"/><path class="cls-37" d="M2354.64,1922.36s17.82-4.94,43.72,0l28.37-20.18V1889.9s23.07,4.94,40.38,16.23,32.13,10.88,32.13,10.88l-88.16,56.85L2364.52,1959Z"/><path class="cls-46" d="M3236.26,1082.77l-24.71,66.12-.58.68-.56.65-.34.41-.82.95-.49.58-7.11,8.3-1.91,2.23-2.08,2.42-3.42,4-5.08,5.9-316.27,368.86-80.67,58.09L2575,1758.36l-30.9-27.35v-61.5s84.05-39.33,147.08-98.92l6.8-26.75s59.52-48.57,92.34-89.86c-4.12,4.77-41,46.76-60.82,37,0,0,61.37-65.93,115.76-136.77s231.53-189.51,231.53-189.51l150.6-93.43C3234.73,1078.61,3236.26,1082.77,3236.26,1082.77Z"/><path class="cls-46" d="M2313,1523.88s30.48-1.13,70.86-20.91,134.3-38.31,134.3-38.31,255.84-93.57,336.17-159.26c0,0-131.1,164.4-212.58,197.57l-74.15,20.91-140.9,57Z"/><path class="cls-47" d="M2219.1,1593.12l144.19,49.1s19.36,9.06,20.6,28v8.65H2254.94s-18.54,1.23-18.54-16.89v-44.09l-17.3-19Z"/><path class="cls-61" d="M1926,1807.42s241.78.44,458.68,119.59v36.91s-283.43-25.47-421.65-10.55Z"/><path class="cls-37" d="M1952,2275.66c91.13-52.61,165-180,165-284.61,0-60.25,75.27-36.77,75.27-36.77-9-12.25-158.4-96.8-171.57-102.47-29-12.47-66.93-8.3-108.55,15.73-91.13,52.61-165,180-165,284.61,0,24.94,4.31,46.21,11.95,63.61.2.54.42,1.06.63,1.59s.42,1,.65,1.49c14.26,34,51.07,54.95,74.6,68.53,14.54,8.39,117,61.37,117,61.37C1972.25,2347.22,1928.52,2289.23,1952,2275.66Z"/><ellipse class="cls-38" cx="2059.07" cy="2142.88" rx="232.63" ry="134.3" transform="translate(-830.07 2838.99) rotate(-59.69)"/><path class="cls-37" d="M1956.38,2207.34c0,67.29,47.54,94.4,106.19,60.54s106.19-115.86,106.19-183.16-47.54-94.41-106.19-60.55S1956.38,2140,1956.38,2207.34Z"/><path class="cls-38" d="M2155.79,2087.56c0,61.1-43.14,135.48-96.4,166.18-31.38,18.1-59.29,17-76.87.37-12.22-11.39-19.46-30.25-19.46-55.29,0-61,43.15-135.48,96.33-166.18,24.44-14.11,46.77-16.52,63.74-9.05C2143.12,2032.19,2155.79,2054.52,2155.79,2087.56Z"/><path class="cls-62" d="M1931.59,2185.56c2.6,58,46.9,76,99,40.2s92.15-111.94,89.55-170-46.91-76-99-40.2S1929,2127.52,1931.59,2185.56Z"/><path class="cls-63" d="M1937.78,2190c2.6,58,46.91,76,99,40.21s92.15-111.94,89.55-170-46.91-76-99-40.2S1935.18,2132,1937.78,2190Z"/><path class="cls-64" d="M2116.59,2066.9c2.34,52.12-33.62,120.35-80.36,152.56-46.58,32-86.49,15.87-88.81-36.06a107.36,107.36,0,0,1,.7-17.74c5-48.82,38.27-106.09,79.66-134.82,3.4-2.31,6.8-4.45,10.06-6.22C2080.14,2001.1,2114.43,2018.58,2116.59,2066.9Z"/><path class="cls-65" d="M2074.09,2063.33l0,.73c1.77,39.49-25.43,91.08-60.85,115.38a73.15,73.15,0,0,1-18.9,9.86c-20,6.84-36.49.69-43.77-16.7a31.83,31.83,0,0,1-2.48-6.94A148.37,148.37,0,0,1,1952,2144c9.63-38.18,33.85-78.08,63.87-103.78a143.56,143.56,0,0,1,11.92-9.37c2.91-1.93,5.67-3.68,8.44-5.24a15.54,15.54,0,0,1,1.62-1C2058.1,2022.84,2072.56,2036.66,2074.09,2063.33Z"/><path class="cls-66" d="M2067.65,2053.68c1.73,38.59-40.21,111.05-75,135.51-.16.19-.32.2-.48.39l-1.52-.48a14.44,14.44,0,0,1-4.73-1.42,12.62,12.62,0,0,1-1.87-.64,217.62,217.62,0,0,1-33.49-14.44,31.83,31.83,0,0,1-2.48-6.94A148.37,148.37,0,0,1,1952,2144c9.63-38.18,33.85-78.08,63.87-103.78a143.56,143.56,0,0,1,11.92-9.37c2.91-1.93,5.67-3.68,8.44-5.24a230.6,230.6,0,0,1,27.4,23.74l.18.17C2066.25,2052.11,2067.65,2053.68,2067.65,2053.68Z"/><path class="cls-67" d="M2077.14,2079.25c1.53,34-21.93,78.52-52.43,99.53s-56.43,10.36-57.94-23.53a69.56,69.56,0,0,1,.46-11.57c3.25-31.85,25-69.22,52-88,2.22-1.51,4.44-2.9,6.56-4.06C2053.36,2036.32,2075.73,2047.72,2077.14,2079.25Z"/><path class="cls-68" d="M2051.09,2100.74c.75,16.57-10.69,38.26-25.54,48.5s-27.5,5-28.24-11.46a33.53,33.53,0,0,1,.23-5.64c1.58-15.52,12.16-33.73,25.32-42.86a35.75,35.75,0,0,1,3.2-2C2039.5,2079.82,2050.41,2085.38,2051.09,2100.74Z"/><path class="cls-65" d="M2027.61,2105.78c.3,6.63-4.28,15.32-10.23,19.42s-11,2-11.31-4.59a14.34,14.34,0,0,1,.09-2.26,26,26,0,0,1,10.14-17.16,14.41,14.41,0,0,1,1.28-.79C2023,2097.4,2027.33,2099.63,2027.61,2105.78Z"/><path class="cls-37" d="M2212.3,1823.7l214.43,78.48,58.09,28.69,8,7.15,73-42.78a24.9,24.9,0,0,0,12.31-21.49h0L3348.73,1401l-122.35-77s-33.37-75-14.84-175.09c0,0-228,136.29-361.5,297.1s-305.89,285-305.89,285L2525,1871.9s-14.21,37.28-69.42,27.8-2.06.42-2.06.42l-248-94.65Z"/><path class="cls-40" d="M2499.24,1596.9s44.82,4.92,44.91,72.61V1871.9s-40.69,50.58-121.74,18l-3.4-165.38,46-2.79-3.09-40.17-90.84-59.32s5.35-24.92,30.48-33.16C2401.6,1589.08,2443.21,1604.32,2499.24,1596.9Z"/><path class="cls-47" d="M2492.85,1724.52H2261.12s15.45,16,23.8,35.53l-40.79-29.35-5.25-12.06H2446.5s8.66-17.3-3.07-36.45a62,62,0,0,0-11.14-12.68c-16.82-15.32-42.65-29.36-42.65-29.36l-173.29-59.32s-15.13-3.37-21.64,5.52c.22-.8,4-13.9,24.4-15.71,21-1.87,154.9,52.64,154.9,52.64l75.56,29.55s20.43,9,30,24.71S2492.85,1724.52,2492.85,1724.52Z"/><path class="cls-69" d="M2176.47,1559.79v49.06s-6.4,10.71-20.82-8.24v8.24s10.73,14.83,20.82,9.06l25.16-28.39v-10.33s3-3.3,18.7-3.3,81.16,23.49,81.16,23.49l72.51,23.89s3.71-20.19,27.6-34.19l-134-39.55Z"/><path class="cls-70" d="M2268.53,1555.29V1568l-10.29,5.42s-30.49,1.24-52.32-2.88-41.75-18-41.75-18V1537.7c0-11.26,9.6-13.82,9.6-13.82-1.23-3.83,5-9.78,5-9.78l77.18,24a17.9,17.9,0,0,1,11.64,11.4A17.68,17.68,0,0,1,2268.53,1555.29Z"/><path class="cls-43" d="M2268.53,1555.29V1568l-10.29,5.42s-30.49,1.24-52.32-2.88-41.75-18-41.75-18V1537.7c7.45,6.6,22,16.29,44.63,18.42,25.85,2.42,48.62-3.39,58.76-6.59A17.68,17.68,0,0,1,2268.53,1555.29Z"/><path class="cls-71" d="M2268.53,1550.35l44.5-26.47,105.46,39.19s17.31,8.7,51.91-11.07,142.13-61,142.13-61l29.25,11.94s-100.52,38.73-167.67,72.51c0,0-40,24.31-72.51,15.86S2268.53,1550.35,2268.53,1550.35Z"/><path class="cls-47" d="M2350.62,1158.86l49.76,28.74c10.89,6.28,19.8-.45,19.8-15h0c0-14.52-8.91-31.54-19.8-37.83l-49.76-28.73c-10.89-6.29-19.8.45-19.8,15h0C2330.82,1135.55,2339.73,1152.58,2350.62,1158.86Z"/><path class="cls-72" d="M1987.57,1386.38l43.67-25.54-58.36-60.28a16.28,16.28,0,0,1,5.44-26.35l148.31-61.68-16.29-16.48-184.53,79.5a25.33,25.33,0,0,0-7.89,41.16Z"/><path class="cls-41" d="M1839.33,1314.71s-40.86-44.91-58.57-33.38v258.15l-6.25,4v-264s3.36-10.88,18.61-24.06,55.2-26.79,55.2-26.79,24.87-1.64,27.06,24.31-4.69,32.42,5.48,42.45Z"/><path class="cls-73" d="M1890.28,1386.91c-.46,3.12-2.54,19.17.07,29.55,2.88,11.52,31.3,11.52,31.3,11.52l16.07,18-41.2,20.31c-23.89-15.23-24.71-42.38-24.71-42.38l2.47-37.54s-18.13-12.35-26.38-27.18a39.63,39.63,0,0,1-3.66-9.76c-3.46-14.16-1.47-30.62-1.47-30.62l-3.44-4.11c10.36-18.93,41.53-19.36,41.53-19.36s51.92,51.07,74.57,74.37,28.83,45.12,28.83,45.12l-37,20.16c-7.85-26.38-40.69-54.17-40.69-54.17l0,0-16.15,5.52S1890.33,1386.57,1890.28,1386.91Z"/><path class="cls-43" d="M1906.52,1380.83l0,0a40.79,40.79,0,0,1-16.22,6.05,43.91,43.91,0,0,1-16-.53s-18.13-12.35-26.38-27.18a39.63,39.63,0,0,1-3.66-9.76c8.09,9.47,19.51,20.19,29.63,20.28a43.33,43.33,0,0,0,29.24-10.94Z"/><path class="cls-39" d="M2746.91,890s.34-14,10.23-12.36l30.48,19.52s-4.94,5.61-2.47,14.67c0,0,3.71-10.3,21.42-18.95s133.9-79.51,133.9-79.51l-146.26,79.1-39.13-19.37s32.13-9.88,58.91-26.36,85.28-60.36,85.28-60.36-88.16,62.42-131,74.36C2768.26,860.7,2729.27,869.36,2746.91,890Z"/><path class="cls-39" d="M2723.35,958.75s1.29-65.91,19-91.87c0,0,99.67-31.72,133-80.54,0,0-47.79,52.54-137.18,78.28,0,0-28,71.06-19.37,94.13Z"/><polygon class="cls-38" points="3179.41 950.44 3369.74 1052.6 3348.73 1084.94 3168.29 985.12 3179.41 950.44"/><path class="cls-37" d="M3435.92,1398.57c91.13-52.61,165-180,165-284.61,0-60.25,75.26-36.77,75.26-36.77-9-12.25-158.39-96.8-171.57-102.47-29-12.47-66.93-8.3-108.55,15.73-91.13,52.61-165,180-165,284.61,0,24.94,4.31,46.21,11.95,63.61.2.54.41,1.06.62,1.59s.43,1,.66,1.49c14.25,34,51.07,55,74.6,68.53,14.53,8.39,117,61.37,117,61.37C3456.15,1470.13,3412.43,1412.14,3435.92,1398.57Z"/><ellipse class="cls-38" cx="3542.97" cy="1265.79" rx="232.63" ry="134.3" transform="translate(662.12 3685.61) rotate(-59.69)"/><path class="cls-37" d="M3440.28,1330.25c0,67.3,47.55,94.4,106.19,60.54s106.2-115.86,106.2-183.16-47.55-94.41-106.2-60.55S3440.28,1263,3440.28,1330.25Z"/><path class="cls-38" d="M3639.7,1210.47c0,61.1-43.15,135.48-96.41,166.18-31.38,18.1-59.29,17-76.86.37-12.22-11.39-19.46-30.25-19.46-55.29,0-61,43.15-135.48,96.32-166.18,24.45-14.1,46.77-16.52,63.75-9C3627,1155.1,3639.7,1177.43,3639.7,1210.47Z"/><path class="cls-74" d="M3415.49,1308.47c2.6,58,46.91,76,99,40.2s92.15-111.94,89.55-170-46.91-76-99-40.2S3412.89,1250.43,3415.49,1308.47Z"/><path class="cls-63" d="M3421.69,1312.92c2.6,58,46.91,76,99,40.21s92.16-111.94,89.56-170-46.91-76-99-40.2S3419.09,1254.89,3421.69,1312.92Z"/><path class="cls-75" d="M3600.5,1189.81c2.34,52.12-33.62,120.35-80.36,152.56-46.59,32-86.49,15.87-88.82-36.06a107.38,107.38,0,0,1,.71-17.74c5-48.82,38.26-106.09,79.66-134.82,3.39-2.31,6.8-4.45,10.06-6.22C3564,1124,3598.33,1141.49,3600.5,1189.81Z"/><path class="cls-65" d="M3558,1186.24l0,.73c1.77,39.49-25.42,91.08-60.85,115.39a73.09,73.09,0,0,1-18.9,9.85c-20,6.84-36.48.69-43.76-16.7a30.82,30.82,0,0,1-2.48-6.94,147,147,0,0,1,3.86-21.67c9.63-38.18,33.85-78.08,63.88-103.77a141.62,141.62,0,0,1,11.92-9.38c2.91-1.93,5.67-3.68,8.43-5.24a15.56,15.56,0,0,1,1.63-1C3542,1145.75,3556.46,1159.57,3558,1186.24Z"/><path class="cls-76" d="M3551.56,1176.59c1.73,38.59-40.21,111.06-75,135.51-.16.19-.33.2-.48.39l-1.53-.48a14.44,14.44,0,0,1-4.73-1.42,12.17,12.17,0,0,1-1.86-.64,217.62,217.62,0,0,1-33.49-14.44,30.82,30.82,0,0,1-2.48-6.94,147,147,0,0,1,3.86-21.67c9.63-38.18,33.85-78.08,63.88-103.77a141.62,141.62,0,0,1,11.92-9.38c2.91-1.93,5.67-3.68,8.43-5.24a230,230,0,0,1,27.41,23.74l.17.17C3550.15,1175,3551.56,1176.59,3551.56,1176.59Z"/><path class="cls-67" d="M3561.05,1202.16c1.52,34-21.94,78.52-52.43,99.53s-56.43,10.36-57.95-23.53a69.56,69.56,0,0,1,.46-11.57c3.25-31.85,25-69.22,52-88a76.59,76.59,0,0,1,6.57-4.05C3537.26,1159.23,3559.64,1170.63,3561.05,1202.16Z"/><path class="cls-77" d="M3535,1223.65c.74,16.57-10.69,38.26-25.55,48.5s-27.49,5-28.23-11.46a33.51,33.51,0,0,1,.22-5.64c1.59-15.52,12.17-33.73,25.33-42.86a37.12,37.12,0,0,1,3.19-2C3523.41,1202.73,3534.31,1208.29,3535,1223.65Z"/><path class="cls-65" d="M3511.52,1228.69c.29,6.63-4.29,15.32-10.24,19.42s-11,2-11.3-4.59a14.34,14.34,0,0,1,.09-2.26,26,26,0,0,1,10.14-17.16,13.1,13.1,0,0,1,1.28-.79C3506.87,1220.31,3511.24,1222.54,3511.52,1228.69Z"/><ellipse class="cls-78" cx="2641.78" cy="1547.46" rx="918.89" ry="64.77" transform="matrix(0.84, -0.55, 0.55, 0.84, -416.46, 1691.71)"/><ellipse class="cls-79" cx="937.8" cy="1856.75" rx="918.89" ry="64.77" transform="translate(-834.24 767.32) rotate(-31.62)"/><ellipse class="cls-80" cx="1090.38" cy="2325.17" rx="64.77" ry="918.89" transform="translate(-1468.47 2106.88) rotate(-60)"/><ellipse class="cls-81" cx="1381.44" cy="1968.67" rx="918.89" ry="64.77" transform="translate(-987.45 1553.44) rotate(-45)"/><g class="cls-6"><polygon class="cls-82" points="2726.08 1898.52 2690.72 1920.29 2698.08 2052.37 2733.44 2030.6 2726.08 1898.52"/><polygon class="cls-83" points="2796.05 1855.44 2760.69 1877.21 2768.05 2009.29 2803.41 1987.52 2796.05 1855.44"/><polygon class="cls-84" points="2866.02 1812.36 2830.66 1834.13 2838.01 1966.22 2873.37 1944.44 2866.02 1812.36"/><polygon class="cls-85" points="2935.99 1769.28 2900.62 1791.05 2907.98 1923.14 2943.34 1901.37 2935.99 1769.28"/><polygon class="cls-86" points="3005.95 1726.2 2970.59 1747.97 2977.95 1880.06 3013.31 1858.29 3005.95 1726.2"/><polygon class="cls-87" points="3075.92 1683.13 3040.56 1704.9 3047.91 1836.98 3083.27 1815.21 3075.92 1683.13"/><polygon class="cls-88" points="3145.89 1640.05 3110.53 1661.82 3117.88 1793.9 3153.24 1772.13 3145.89 1640.05"/><polygon class="cls-89" points="3215.85 1596.97 3180.49 1618.74 3187.85 1750.83 3223.21 1729.06 3215.85 1596.97"/><polygon class="cls-90" points="3285.82 1553.89 3250.46 1575.66 3257.81 1707.75 3293.18 1685.98 3285.82 1553.89"/><polygon class="cls-91" points="3355.79 1510.82 3320.43 1532.59 3327.78 1664.67 3363.14 1642.9 3355.79 1510.82"/><polygon class="cls-92" points="3425.75 1467.74 3390.39 1489.51 3397.75 1621.6 3433.11 1599.82 3425.75 1467.74"/></g><g class="cls-93"><polygon class="cls-94" points="3379.69 1222.9 3344.33 1244.67 3351.69 1376.76 3387.05 1354.99 3379.69 1222.9"/><polygon class="cls-95" points="3449.66 1179.83 3414.3 1201.6 3421.65 1333.68 3457.01 1311.91 3449.66 1179.83"/><polygon class="cls-96" points="3519.63 1136.75 3484.26 1158.52 3491.62 1290.61 3526.98 1268.83 3519.63 1136.75"/><polygon class="cls-97" points="3589.59 1093.67 3554.23 1115.44 3561.59 1247.53 3596.95 1225.76 3589.59 1093.67"/><polygon class="cls-98" points="3659.56 1050.59 3624.2 1072.37 3631.55 1204.45 3666.92 1182.68 3659.56 1050.59"/><polygon class="cls-99" points="3729.53 1007.52 3694.17 1029.29 3701.52 1161.37 3736.88 1139.6 3729.53 1007.52"/><polygon class="cls-100" points="3799.49 964.44 3764.13 986.21 3771.49 1118.3 3806.85 1096.52 3799.49 964.44"/><polygon class="cls-101" points="3869.46 921.36 3834.1 943.13 3841.46 1075.22 3876.82 1053.45 3869.46 921.36"/><polygon class="cls-102" points="3939.43 878.28 3904.07 900.05 3911.42 1032.14 3946.78 1010.37 3939.43 878.28"/><polygon class="cls-103" points="4009.39 835.21 3974.03 856.98 3981.39 989.06 4016.75 967.29 4009.39 835.21"/><polygon class="cls-104" points="4079.36 792.13 4044 813.9 4051.36 945.98 4086.72 924.21 4079.36 792.13"/></g><path class="cls-105" d="M4216.5,1696.49c-7.76,3-26.09-1.61-26.09-1.61-14.33-2.24-14.52-14.15-14.16-19.46l30.37-109.87c4.11-23.36,13.83-44,28.62-52.22h0c19-10.42,45.9,3.44,40.11,33.16C4275.35,1546.49,4238.36,1688,4216.5,1696.49Z"/><path class="cls-106" d="M4034.59,1665.15c-15.12-12.06-16-19.08-11.39-17.88,25.54,6.6,37.19-4.35,37.19-4.35-11.43-.5-18.09-6.75-19.92-10.12-1.52-2.77,2.29-7.58,7-4.29s12.26,4,16.46,3.79c12.45-.63,17.21,1.88,20.5,4.12,9.23,6.23,17.26,6.54,17.26,6.54.72.1,1.6.13,2.54.16l-3.52,25.17a90,90,0,0,0-25.87,2.48C4054,1675.5,4037.18,1667.22,4034.59,1665.15Z"/><path class="cls-107" d="M4217.12,1692.56c9.74-14.21.19-34.17-15.53-41.29l-106.16-16.42s1.67,13-.55,18.82c-5.24,13.85-14.45,16.61-14.45,16.61S4195.11,1724.69,4217.12,1692.56Z"/><polygon class="cls-108" points="3898.8 1670.76 3898.8 1676.72 3981.49 1629.48 3981.5 1623.52 3898.8 1670.76"/><polygon class="cls-109" points="3981.5 1623.52 3981.49 1629.48 4080.18 1687.43 4080.18 1681.48 3981.5 1623.52"/><g class="cls-2"><g class="cls-2"><path class="cls-110" d="M4043.88,1709l0,6a3,3,0,0,1,1.8-2.46,5.8,5.8,0,0,1,.87-.41v-6a6.23,6.23,0,0,0-.86.42,3,3,0,0,0-1.79,2.47Z"/><path class="cls-111" d="M4046.53,1706.13v6a6.44,6.44,0,0,1,.74-.25v-6c-.25.07-.49.15-.74.24Z"/><path class="cls-112" d="M4047.27,1705.89v6l.62-.16,0-6c-.22,0-.43.09-.64.15Z"/><path class="cls-113" d="M4047.91,1705.74l0,6c.21,0,.4-.07.61-.09v-6c-.2,0-.4.06-.6.11Z"/><path class="cls-114" d="M4048.51,1705.63v6l.59-.07v-6l-.58.06Z"/><path class="cls-115" d="M4049.09,1705.57v6l.59,0v-6l-.6,0Z"/><path class="cls-116" d="M4049.69,1705.54v6h.62v-6Z"/><path class="cls-117" d="M4050.31,1705.55v6l.67,0,0-6c-.23,0-.45,0-.68,0Z"/><path class="cls-118" d="M4051,1705.6l0,6c.27,0,.51.06.77.1v-6a5.16,5.16,0,0,0-.76-.11Z"/><path class="cls-119" d="M4051.75,1705.71v6a9.84,9.84,0,0,1,1.13.3v-6a6.93,6.93,0,0,0-1.13-.29Z"/><path class="cls-120" d="M4052.88,1706v6a7.13,7.13,0,0,1,1.32.58l.07,0v-6l-.07,0a6.59,6.59,0,0,0-1.32-.58Z"/><path class="cls-119" d="M4054.27,1706.62v6a5.5,5.5,0,0,1,.77.57v-6a4.7,4.7,0,0,0-.76-.57Z"/><path class="cls-118" d="M4055,1707.19v6c.13.13.25.27.36.4v-6a2.74,2.74,0,0,0-.37-.4Z"/><path class="cls-117" d="M4055.4,1707.59v6a3.21,3.21,0,0,1,.24.36v-6a1.94,1.94,0,0,0-.24-.37Z"/><path class="cls-116" d="M4055.64,1708v6a2.72,2.72,0,0,1,.16.35v-6a1.5,1.5,0,0,0-.16-.34Z"/><path class="cls-115" d="M4055.8,1708.3v6a1,1,0,0,1,.09.33l0-5.95a1.91,1.91,0,0,0-.1-.34Z"/><path class="cls-114" d="M4055.9,1708.64l0,5.95a1.49,1.49,0,0,1,0,.36v-6c0-.11,0-.23,0-.34Z"/><path class="cls-113" d="M4055.94,1709v0Z"/></g></g><g class="cls-2"><g class="cls-2"><path class="cls-121" d="M4043.88,1709l0,6a.11.11,0,0,0,0,.06v-6Z"/><path class="cls-122" d="M4043.88,1709.08v6a2.19,2.19,0,0,0,0,.36l0-6a1.27,1.27,0,0,1,0-.34Z"/><path class="cls-123" d="M4043.92,1709.42l0,6c0,.11.06.22.1.33v-6a2.14,2.14,0,0,1-.09-.34Z"/><path class="cls-124" d="M4044,1709.76v6a2.68,2.68,0,0,0,.16.34v-6a2.21,2.21,0,0,1-.16-.35Z"/><path class="cls-125" d="M4044.17,1710.11v6a2.92,2.92,0,0,0,.24.37v-6a2.5,2.5,0,0,1-.24-.36Z"/><path class="cls-126" d="M4044.41,1710.47v6a2.84,2.84,0,0,0,.38.41v-6c-.14-.14-.26-.28-.37-.41Z"/><path class="cls-127" d="M4044.78,1710.88v6a4.58,4.58,0,0,0,.75.56v-6a5.16,5.16,0,0,1-.76-.56Z"/><path class="cls-128" d="M4045.54,1711.44v6l.07,0a7.55,7.55,0,0,0,1.32.59v-6a7.87,7.87,0,0,1-1.32-.58l-.07,0Z"/><path class="cls-127" d="M4046.93,1712.07v6a8.41,8.41,0,0,0,1.15.29v-6a7.3,7.3,0,0,1-1.14-.28Z"/><path class="cls-126" d="M4048.07,1712.35v6a6.2,6.2,0,0,0,.77.11v-6c-.26,0-.52-.07-.77-.12Z"/><path class="cls-125" d="M4048.84,1712.47v6l.66,0v-6c-.23,0-.45,0-.67,0Z"/><path class="cls-124" d="M4049.51,1712.52v6h.62v-6Z"/><path class="cls-123" d="M4050.13,1712.53v6l.58,0,0-6a5.85,5.85,0,0,1-.59,0Z"/><path class="cls-122" d="M4050.72,1712.49l0,6c.2,0,.4,0,.6-.08v-6a5.16,5.16,0,0,1-.58.06Z"/><path class="cls-121" d="M4051.3,1712.43v6l.6-.09v-6l-.6.1Z"/><path class="cls-129" d="M4051.9,1712.33v6c.2,0,.42-.09.62-.15l0-6c-.22.06-.42.11-.64.15Z"/><path class="cls-130" d="M4052.54,1712.18l0,6c.25-.07.5-.15.74-.24v-6a6.28,6.28,0,0,1-.73.25Z"/><path class="cls-131" d="M4053.27,1711.93v6a6.35,6.35,0,0,0,.87-.42,3,3,0,0,0,1.8-2.48v-6a3.06,3.06,0,0,1-1.8,2.5,6.26,6.26,0,0,1-.87.4Z"/></g></g><polygon class="cls-132" points="3997.49 1728.71 3997.48 1734.67 4080.18 1687.43 4080.18 1681.48 3997.49 1728.71"/><path class="cls-133" d="M4045.67,1706.55c-2.37,1.35-2.4,3.56-.06,4.94a9.43,9.43,0,0,0,8.53,0c2.37-1.35,2.4-3.58.06-5A9.4,9.4,0,0,0,4045.67,1706.55Z"/><polygon class="cls-134" points="3898.8 1670.76 3898.8 1676.72 3997.48 1734.67 3997.49 1728.71 3898.8 1670.76"/><polygon class="cls-107" points="3898.8 1670.76 3997.49 1728.71 4080.18 1681.48 3981.5 1623.52 3898.8 1670.76"/><polygon class="cls-135" points="3922.16 1669.83 3995.36 1712.81 4056.7 1677.77 3983.5 1634.78 3922.16 1669.83"/><polygon class="cls-136" points="3968.73 1654.98 3989.5 1667.17 4006.9 1657.24 3986.14 1645.04 3968.73 1654.98"/><path class="cls-135" d="M3887.37,1671s0,0,0,0a2,2,0,0,0,.28.55.28.28,0,0,0,.06.09,2.46,2.46,0,0,0,.46.52c.13.11.28.22.43.33a2.93,2.93,0,0,0,.34.24L4005.11,1741v6L3889,1678.77l-.07,0h0c-.1-.06-.18-.14-.27-.2a5.36,5.36,0,0,1-.43-.33l0,0a4.32,4.32,0,0,1-.37-.38.31.31,0,0,1-.05-.1.35.35,0,0,1-.08-.1.7.7,0,0,1-.1-.16,2.49,2.49,0,0,1-.16-.33.07.07,0,0,0,0,0l0-.07a.83.83,0,0,1-.06-.21,2.09,2.09,0,0,1,0-.34v-6A2.16,2.16,0,0,0,3887.37,1671Z"/><path class="cls-136" d="M3975.86,1618.41a9.09,9.09,0,0,1,8.28,0l116.15,68.21c2.28,1.34,2.24,3.49-.06,4.79l-86.83,49.62a9.17,9.17,0,0,1-8.29,0L3889,1672.81c-2.28-1.34-2.26-3.48.05-4.8Zm21.63,110.3,82.68-47.23-98.67-58-82.7,47.24,98.69,58Zm56.65-17.18c2.37-1.35,2.4-3.58.06-5a9.4,9.4,0,0,0-8.53,0c-2.37,1.35-2.4,3.56-.06,4.94a9.43,9.43,0,0,0,8.53,0Z"/><path class="cls-137" d="M4005.11,1741a7,7,0,0,0,1.15.5l.45.14.57.15.72.12a.52.52,0,0,0,.17,0c.33,0,.65.06,1,.07h.17c.32,0,.64,0,1,0a.34.34,0,0,0,.14,0,7.5,7.5,0,0,0,.93-.15l.19,0a7.15,7.15,0,0,0,.79-.23l.16,0a9.23,9.23,0,0,0,.9-.42l86.83-49.62a2.89,2.89,0,0,0,1.75-2.4c0,2,0,4,0,6a2.93,2.93,0,0,1-1.74,2.41l-86.85,49.6a5.57,5.57,0,0,1-.85.41h0l-.15.06-.52.17-.28.06a.65.65,0,0,1-.18,0,.42.42,0,0,1-.15,0,3.7,3.7,0,0,1-.58.1l-.21,0h-.15l-.21,0a5.63,5.63,0,0,1-.58,0h-.6l-.64,0h-.08l-.16,0-.51-.08-.21,0c-.2,0-.39-.1-.58-.15a3,3,0,0,1-.32-.08l-.13-.06a6.68,6.68,0,0,1-1.15-.51Z"/><polygon class="cls-136" points="3938.19 1673.67 3941.35 1675.52 3969.41 1659.62 3966.16 1657.7 3938.19 1673.67"/><polygon class="cls-136" points="3946.8 1678.62 3949.95 1680.46 3978.02 1664.55 3974.77 1662.64 3946.8 1678.62"/><polygon class="cls-136" points="3954.49 1683.79 3957.63 1685.63 3985.7 1669.72 3982.44 1667.81 3954.49 1683.79"/><path class="cls-138" d="M4045.67,1707.16c-2.37,1.36-2.4,3.56-.06,4.94a9.4,9.4,0,0,0,8.53,0c2.37-1.35,2.4-3.57.06-4.94A9.43,9.43,0,0,0,4045.67,1707.16Z"/><g class="cls-6"><path class="cls-139" d="M4048.46,2261.83c-72.24,41.71-72.59,109.32-.83,151.05s188.56,41.72,260.82,0,72.64-109.34.85-151.05S4120.73,2220.08,4048.46,2261.83Z"/></g><path class="cls-140" d="M4250,1803s44.13,35.53,19.64,118.37-30.77,79.49-23.33,105.45c5.59,19.53,25.71,59.73,23.71,94.5-1.57,27.49-6.08,43.38-12.14,87.75-7.72,56.29-6,44.37,1.41,68.06,8.38,26.7-39.55,50.09-54.79,47.85s18.51-14.42,16.12-61.14-28.08-182.14-41-211.71-35-183.31-31.39-230.33C4148.19,1821.83,4196,1840.53,4250,1803Z"/><path class="cls-141" d="M4204.38,2342.26c-.11-.06-.25-.09-.36-.16A2,2,0,0,1,4204.38,2342.26Z"/><polygon class="cls-142" points="4248.44 2298.49 4255.19 2346.51 4258.24 2353.28 4254.1 2298.58 4248.44 2298.49"/><path class="cls-143" d="M4255.81,2267.15c-6.41.33-12.05,8.73-22.57,29.75-4.33,8.67-17.5,30.84-29.9,23-1.49-.93,2.63-6.5,2.63-6.5s-19.3-4.07-21.28,1.7,12.59,32.06,32.29,29.35,23.6-24.39,27.81-32.58c8.52-16.59,6.37,17.57,18.5-15.54C4269.64,2279,4255.81,2267.15,4255.81,2267.15Z"/><path class="cls-144" d="M4217,2344.48a21.5,21.5,0,0,1-12.39-2.11c4.38,2.47,16.34-5.88,24.29-21s25.22-22.82,25.22-22.82l3.49,3.59c-2.73,8.07-2.79-6.17-12.8,9.73C4239.86,2319.68,4236.67,2341.77,4217,2344.48Z"/><polygon class="cls-143" points="4262.89 2288.49 4257.81 2358.43 4246.69 2352.97 4244.97 2281.23 4262.89 2288.49"/><path class="cls-144" d="M4257.81,2358.43l7.56-5.51s4.31-61.14-2.15-74.8c-5.59-11.82-7.41-11-7.41-11Z"/><path class="cls-145" d="M4206.06,1831.14s38,48.82,9.28,130.31-34.79,77.82-28.68,104.12c4.59,19.79,22.63,61,18.87,95.59-3,27.37-8.28,43-16.6,87-10.57,55.83-8.28,44-2.05,68.06,7,27.09-42.06,48-57.15,45s19.2-13.46,19.2-60.24-18.77-183.34-30.17-213.53-14.59-214.72-8.55-261.5C4110.21,1826,4150.23,1865.84,4206.06,1831.14Z"/><path class="cls-141" d="M4128.74,2378.44a3.84,3.84,0,0,1-.35-.18A1.52,1.52,0,0,1,4128.74,2378.44Z"/><polygon class="cls-142" points="4174.96 2336.96 4179.27 2385.27 4181.97 2392.19 4180.63 2337.34 4174.96 2336.96"/><path class="cls-143" d="M4183.94,2306.05c-6.42,0-12.5,8.1-24,28.56-4.77,8.43-19.06,29.9-31.05,21.47-1.43-1,3-6.35,3-6.35s-19.09-5.05-21.35.6,10.95,32.66,30.76,31,24.79-23.15,29.42-31.12c9.36-16.13,5.47,17.87,19.28-14.57C4197.13,2318.63,4183.94,2306.05,4183.94,2306.05Z"/><path class="cls-144" d="M4141.21,2381.29a21.46,21.46,0,0,1-12.25-2.73c4.23,2.69,16.61-5,25.31-19.71s26.36-21.51,26.36-21.51l3.31,3.77c-3.15,7.91-2.49-6.3-13.31,9.06C4165.33,2357.69,4161,2379.6,4141.21,2381.29Z"/><polygon class="cls-143" points="4189.9 2327.72 4181.29 2397.31 4170.44 2391.29 4172.39 2319.55 4189.9 2327.72"/><path class="cls-144" d="M4181.29,2397.31l7.83-5.12s7.41-60.83,1.64-74.81c-5-12.09-6.82-11.33-6.82-11.33Z"/><path class="cls-146" d="M4267.13,1780.68s-100.5,76.48-159.93,13.57c0,0-18.16,99.61-13.61,215.8,3.81,97.31,13.6,114.69,13.6,114.69s123.72,22.64,171.26-41.87c0,0-24.16-50.93-9.81-93.94S4320.24,1866.1,4267.13,1780.68Z"/><path class="cls-147" d="M4107.19,2124.74s-9.79-17.38-13.6-114.69c-4.55-116.19,13.61-215.8,13.61-215.8,59.43,62.91,159.93-13.57,159.93-13.57,4.9,3.83,9.05,19.32,12.68,23.93-8.69,17.24-45,21.33-67.4,28.83-37.49,12.53-76.35,68-72.18,127.67,3,42.9,13.53,124.84,19.2,167.45A306.36,306.36,0,0,1,4107.19,2124.74Z"/><path class="cls-148" d="M4320,1918.36s-32.66,35.88-75.81,50.68c-23.19,8-51.05,11.06-77.17,11.8a552.21,552.21,0,0,1-86.6-4.76c-.26-160.76,19-324.64,12.89-367.57-3.88-27.53,38.65-51.7,52.24-58.68,2.57-1.31,4.11-2,4.11-2,103.6-55.08,117.49-39.66,117.49-39.66,50,5.79,31,108.58,15.49,144-16.58,37.78-25.52,97.51,1.2,137.6C4313.29,1833.9,4320,1918.36,4320,1918.36Z"/><path class="cls-145" d="M4148.44,1508.62l4.66,47.24s40.44,22.08,69.12-12.8l-4.75-47.41S4181.67,1511.51,4148.44,1508.62Z"/><path class="cls-149" d="M4173.42,1370.54s-35.95-.33-49.5,26.37-25.21,66.31-8.28,88.6c18,23.9,8.56,38.28,0,46s93.62,42.66,137.46-22.8C4253.14,1508.7,4282,1346.45,4173.42,1370.54Z"/><path class="cls-106" d="M3910.53,1714.75c-9.79-16.67-8.13-23.55-4.22-20.77,21.47,15.31,36.28,9.27,36.28,9.27-10.49-4.56-14.47-12.79-15-16.6-.43-3.13,4.85-6.25,8-1.5s10,8.13,14,9.42c11.85,3.88,15.42,7.93,17.68,11.2,6.39,9.13,13.76,12.3,13.76,12.3.64.35,1.43.69,2.31,1.07l-12.29,22.22a90,90,0,0,0-25-6.95C3924.92,1731.37,3912.2,1717.61,3910.53,1714.75Z"/><path class="cls-143" d="M4088.78,1766.58c-7.76,3-26.09-1.62-26.09-1.62-14.32-2.24-14.53-14.14-14.16-19.46l30.37-109.86c4.11-23.37,13.84-44,28.62-52.23h0c19-10.4,45.91,3.45,40.11,33.17C4147.63,1616.58,4110.65,1758.13,4088.78,1766.58Z"/><path class="cls-143" d="M4089.39,1762.66c9.74-14.22.2-34.17-15.52-41.31l-106.17-16.41s1.68,13-.54,18.82c-5.24,13.86-14.45,16.61-14.45,16.61S4067.39,1794.78,4089.39,1762.66Z"/><polygon class="cls-150" points="406.63 574.87 406.63 1703.71 1875.25 847.01 1875.25 -276.1 406.63 574.87"/><path class="cls-151" d="M1944.28,269.61l59.3-87.34,1.84,649.07L1746.26,981l-.71-251.14v-4.34l-.46-162.43,195.44-287.9Zm57.35,559.57-1.8-635.88-55.53,81.8-3.76,5.54L1748.85,563l.46,160.32v4.33l.7,246.81,251.61-145.27"/><path class="cls-152" d="M1830.09,262l89.63-51.75.68,238.31L1831,583.88Zm86.53,186.67-.66-231.9-82.09,47.39.88,308.46,81.87-124"/><polygon class="cls-153" points="502.25 1940.07 501.31 1608.35 505.06 1602.81 506.03 1942.23 310.09 2055.35 310.07 2051.02 502.25 1940.07"/><polygon class="cls-154" points="231.74 1422.21 504.11 1264.96 505.05 1597.33 501.29 1602.86 500.35 1271.47 235.53 1424.37 237.42 2092.96 306.3 2053.2 306.32 2057.53 233.66 2099.48 231.74 1422.21"/><polygon class="cls-155" points="549.1 451.36 549.11 455.69 372.67 557.56 373.53 859.21 369.75 861.38 368.88 555.41 549.1 451.36"/><polygon class="cls-108" points="3520.75 1849.88 3520.75 1855.95 3604.96 1807.85 3604.96 1801.78 3520.75 1849.88"/><polygon class="cls-109" points="3604.96 1801.78 3604.96 1807.85 3705.44 1866.86 3705.44 1860.79 3604.96 1801.78"/><g class="cls-2"><g class="cls-2"><path class="cls-110" d="M3668.48,1888.84v6.06a3.07,3.07,0,0,1,1.82-2.51,6.19,6.19,0,0,1,.9-.42v-6.07a6.65,6.65,0,0,0-.89.43,3.08,3.08,0,0,0-1.82,2.51Z"/><path class="cls-111" d="M3671.19,1885.9V1892c.24-.09.49-.18.74-.25v-6.06a5.43,5.43,0,0,0-.75.24Z"/><path class="cls-112" d="M3671.94,1885.66v6.06l.64-.16v-6.06c-.21,0-.43.09-.64.16Z"/><path class="cls-113" d="M3672.58,1885.5v6.06l.62-.1v-6.07c-.21,0-.41.06-.62.11Z"/><path class="cls-114" d="M3673.2,1885.39v6.07c.19,0,.39,0,.6-.06v-6.07l-.59.06Z"/><path class="cls-115" d="M3673.79,1885.33v6.07a5.88,5.88,0,0,1,.6,0v-6.08l-.61,0Z"/><path class="cls-116" d="M3674.4,1885.29v6.08h.63v-6.06c-.21,0-.42,0-.63,0Z"/><path class="cls-117" d="M3675,1885.31v6.06c.23,0,.46,0,.68.06l0-6.07c-.23,0-.46,0-.69,0Z"/><path class="cls-118" d="M3675.72,1885.36l0,6.07c.27,0,.53.06.78.1l0-6.06a5.42,5.42,0,0,0-.78-.11Z"/><path class="cls-119" d="M3676.5,1885.47l0,6.06a9.82,9.82,0,0,1,1.16.3v-6.07a6.91,6.91,0,0,0-1.15-.29Z"/><path class="cls-120" d="M3677.65,1885.76v6.07a7.48,7.48,0,0,1,1.35.6l.07,0v-6.08l-.07,0a6.28,6.28,0,0,0-1.34-.6Z"/><path class="cls-119" d="M3679.06,1886.39v6.08a5.34,5.34,0,0,1,.77.58V1887a4.54,4.54,0,0,0-.78-.59Z"/><path class="cls-118" d="M3679.84,1887v6.07c.14.13.26.27.38.4v-6.07a4.67,4.67,0,0,0-.38-.4Z"/><path class="cls-117" d="M3680.22,1887.38v6.07c.09.14.17.25.24.37v-6.06a4,4,0,0,0-.24-.38Z"/><path class="cls-116" d="M3680.46,1887.76v6.06a2.32,2.32,0,0,1,.16.36v-6.07a1.39,1.39,0,0,0-.16-.35Z"/><path class="cls-115" d="M3680.62,1888.11v6.07a1.22,1.22,0,0,1,.1.34v-6.06a2,2,0,0,0-.1-.35Z"/><path class="cls-114" d="M3680.72,1888.46v6.06a2.2,2.2,0,0,1,0,.36v-6.08a1.86,1.86,0,0,0,0-.34Z"/><path class="cls-113" d="M3680.76,1888.8v0Z"/></g></g><g class="cls-2"><g class="cls-2"><path class="cls-121" d="M3668.48,1888.84v0Z"/><path class="cls-122" d="M3668.48,1888.9V1895a1.53,1.53,0,0,0,0,.36v-6.08a1.34,1.34,0,0,1,0-.35Z"/><path class="cls-123" d="M3668.52,1889.25v6.08a2.07,2.07,0,0,0,.1.33v-6.06a1.54,1.54,0,0,1-.1-.35Z"/><path class="cls-124" d="M3668.62,1889.6v6.06a1.39,1.39,0,0,0,.16.35V1890a1.81,1.81,0,0,1-.16-.35Z"/><path class="cls-125" d="M3668.78,1890V1896a2.45,2.45,0,0,0,.24.38v-6.08a2.05,2.05,0,0,1-.24-.36Z"/><path class="cls-126" d="M3669,1890.31v6.08a3.68,3.68,0,0,0,.39.41v-6.07a4.81,4.81,0,0,1-.38-.42Z"/><path class="cls-127" d="M3669.4,1890.73v6.07a4.57,4.57,0,0,0,.76.57l0-6.06a4.52,4.52,0,0,1-.78-.58Z"/><path class="cls-128" d="M3670.18,1891.31l0,6.06a.25.25,0,0,0,.08.05,7.78,7.78,0,0,0,1.34.6V1892a9.17,9.17,0,0,1-1.35-.59.13.13,0,0,0-.06,0Z"/><path class="cls-127" d="M3671.59,1892V1898a8.34,8.34,0,0,0,1.17.29v-6.07a8.94,8.94,0,0,1-1.16-.29Z"/><path class="cls-126" d="M3672.75,1892.24v6.07a6.66,6.66,0,0,0,.78.11v-6.07c-.27,0-.53-.06-.79-.11Z"/><path class="cls-125" d="M3673.54,1892.35v6.07c.22,0,.45,0,.68,0v-6.07a4.94,4.94,0,0,1-.68-.05Z"/><path class="cls-124" d="M3674.22,1892.4v6.07h.62l0-6.07Z"/><path class="cls-123" d="M3674.85,1892.41l0,6.07.6,0v-6.07a5.83,5.83,0,0,1-.59,0Z"/><path class="cls-122" d="M3675.44,1892.38v6.07l.61-.07v-6.06c-.19,0-.39,0-.6.06Z"/><path class="cls-121" d="M3676,1892.32v6.06l.61-.1v-6.06l-.61.1Z"/><path class="cls-129" d="M3676.65,1892.22v6.06c.21,0,.43-.09.64-.15v-6.07l-.65.16Z"/><path class="cls-130" d="M3677.3,1892.06v6.07c.25-.08.5-.15.74-.25l0-6.07a6.59,6.59,0,0,1-.75.25Z"/><path class="cls-131" d="M3678.05,1891.81l0,6.07a6.07,6.07,0,0,0,.89-.42,3.1,3.1,0,0,0,1.83-2.53v-6.08a3.08,3.08,0,0,1-1.83,2.54,7.1,7.1,0,0,1-.88.42Z"/></g></g><polygon class="cls-132" points="3621.24 1908.89 3621.23 1914.96 3705.44 1866.86 3705.44 1860.79 3621.24 1908.89"/><path class="cls-133" d="M3670.31,1886.33c-2.42,1.37-2.44,3.62-.07,5a9.61,9.61,0,0,0,8.69,0c2.41-1.37,2.45-3.64.06-5A9.52,9.52,0,0,0,3670.31,1886.33Z"/><polygon class="cls-134" points="3520.75 1849.88 3520.75 1855.95 3621.23 1914.96 3621.24 1908.89 3520.75 1849.88"/><polygon class="cls-107" points="3520.75 1849.88 3621.24 1908.89 3705.44 1860.79 3604.96 1801.78 3520.75 1849.88"/><polygon class="cls-135" points="3544.54 1848.93 3619.08 1892.7 3681.54 1857.02 3607 1813.25 3544.54 1848.93"/><polygon class="cls-136" points="3591.95 1833.81 3613.11 1846.23 3630.83 1836.11 3609.68 1823.69 3591.95 1833.81"/><path class="cls-135" d="M3509.11,1850.16s0,0,0,0a2.16,2.16,0,0,0,.28.57l.06.09a3.25,3.25,0,0,0,.47.53,5,5,0,0,0,.44.33c.12.09.22.17.35.25L3629,1921.43v6.07L3510.72,1858l-.07,0h0a2.83,2.83,0,0,1-.28-.2,5,5,0,0,1-.44-.33l0,0a3.32,3.32,0,0,1-.37-.39.6.6,0,0,1-.06-.11s0-.06-.07-.09a1.16,1.16,0,0,1-.11-.16l-.16-.34a.13.13,0,0,0,0-.06s0,0,0-.06,0-.15-.07-.22,0-.23,0-.35v-6.12A2.3,2.3,0,0,0,3509.11,1850.16Z"/><path class="cls-136" d="M3599.22,1796.57a9.25,9.25,0,0,1,8.43,0l118.28,69.45c2.31,1.36,2.28,3.55-.06,4.88l-88.43,50.53a9.33,9.33,0,0,1-8.44,0L3510.73,1852c-2.32-1.36-2.3-3.55.05-4.89Zm22,112.32,84.2-48.1-100.48-59-84.21,48.1,100.49,59Zm57.69-17.5c2.41-1.37,2.45-3.64.06-5a9.55,9.55,0,0,0-8.69,0c-2.41,1.37-2.43,3.62-.06,5a9.61,9.61,0,0,0,8.69,0Z"/><path class="cls-107" d="M3629,1921.43a5.84,5.84,0,0,0,1.17.51l.46.15c.2.06.39.11.59.15s.48.09.72.13l.18,0c.34,0,.66.06,1,.07h.17a8.22,8.22,0,0,0,1-.06h.14c.31,0,.64-.09.95-.16l.19,0a5.29,5.29,0,0,0,.8-.24l.17,0a7.5,7.5,0,0,0,.91-.42l88.43-50.53a3,3,0,0,0,1.78-2.44c0,2,0,4,0,6.07a3,3,0,0,1-1.77,2.45l-88.43,50.51a6.35,6.35,0,0,1-.87.42h0a.76.76,0,0,1-.16.06c-.17.06-.34.13-.52.18l-.29.06a.65.65,0,0,1-.18,0,.47.47,0,0,1-.16,0,3.83,3.83,0,0,1-.59.1l-.21,0h-.15l-.21,0-.59,0a1.21,1.21,0,0,1-.19,0h-.42c-.23,0-.44,0-.66,0h-.08l-.17,0-.51-.07-.22-.06c-.2,0-.4-.1-.59-.15a3,3,0,0,1-.32-.08l-.14-.07a6.47,6.47,0,0,1-1.17-.51Z"/><polygon class="cls-136" points="3560.86 1852.85 3564.07 1854.73 3592.65 1838.53 3589.34 1836.59 3560.86 1852.85"/><polygon class="cls-136" points="3569.63 1857.88 3572.84 1859.76 3601.42 1843.56 3598.11 1841.62 3569.63 1857.88"/><polygon class="cls-136" points="3577.45 1863.14 3580.65 1865.02 3609.24 1848.82 3605.92 1846.88 3577.45 1863.14"/><path class="cls-107" d="M3670.31,1887c-2.42,1.38-2.44,3.62-.07,5a9.55,9.55,0,0,0,8.69,0c2.41-1.37,2.45-3.64.06-5A9.55,9.55,0,0,0,3670.31,1887Z"/><path class="cls-156" d="M3635.55,1928.25l-6.56-31-26-14.13s-8.27,9.3,8.42,15.36l-2.15,9.44-17.28-2.17-23-13.49s-10.65,6.64,8.45,27.93,51.54,32.08,51.54,32.08Z"/><g class="cls-6"><path class="cls-157" d="M3966,2426.19c89.22,51.51,89.66,135,1,186.54s-232.86,51.53-322.09,0-89.71-135-1.05-186.54S3876.8,2374.63,3966,2426.19Z"/></g><path class="cls-144" d="M3913.72,2490.4s-2.32-5.4-6.17-12.41c-7.59-13.84-21.13-33.95-34.48-31.17-20.11,4.19-23.46,25.56-21.37,39s13.41,24.3,17.6,33.94,24.3,43.57,41.48,37.71,21.37-22.63,13.83-44S3913.72,2490.4,3913.72,2490.4Z"/><path class="cls-143" d="M3917.07,2467.77s-24.3-15.08-29.33-19.27-23.43-7.79-28,5.53-6.31,27.57,2.49,40.14,22.33,42.32,27.5,46.51,16.52,13.36,29.06,7.77c10.88-4.84,8-9,9.47-20.76S3917.07,2467.77,3917.07,2467.77Z"/><path class="cls-147" d="M3923.77,1955.76s16.76,42.74,17.6,83-.84,190.22,0,208.66,15.92,111.45,7.54,138.27-20.59,119.83-20.59,119.83-27.47,18.44-38.64,0-5.29-79.61-12-103.07-6.7-61.17-6.7-76.26v-32.68s-21.79-81.28-29.33-155.86S3831.6,1929,3923.77,1955.76Z"/><path class="cls-144" d="M3845,2539.13s11.65,38.65,0,46.09c-30.17,19.27-63.5-2.93-79.42,1.25s-62.2,5.45-72.25-4.61-19.8-27.36-12.26-42.9c3.77-7.77,50,5.2,60,.17s50.28-16.11,50.28-16.11Z"/><path class="cls-143" d="M3845,2529.78s11.65,38.65,0,46.09c-30.17,19.28-63.5-2.93-79.42,1.26s-62.2,5.45-72.25-4.61-17.6-31.84-10.06-36,47.76-1.68,57.82-6.71,50.28-16.1,50.28-16.1Z"/><path class="cls-146" d="M3897.13,1996s12.9,68.2-19,90.69c-17.27,12.2-47.42,179.14-47.42,197.57s27.64,88.83,25.13,130.73-4.73,120.67-4.73,120.67-19.56,17.6-45.54,5.87-26-27.84-26-27.84,5.86-25.8,5.86-39.2-31.84-119-32.68-144.14-8.38-42.73-8.38-64.52-22.62-156.7-17.6-205.31,36.88-103.91,36.88-103.91l114,6.87Z"/><path class="cls-143" d="M3939.75,1686s17-15.72,23.41-13.52c48.28,16.72,76.25,154.87,64.52,198.11s-87.93,81.64-87.93,81.64-20.17-18.29-25.2-46.79,36.89-52.68,36.89-52.68h4.18l2.57-7,1.53-13.2S3920.42,1727,3939.75,1686Z"/><path class="cls-148" d="M3963.16,1672.52c22.49,23.31.77,112.88-7.62,148.08s-17.28,49.69-15.85,71.48,5.95,51.93,5.95,51.93,23.07,194.14-.65,222.09c-8.73,10.29-55,72.59-101.11,66.45s-106.24-23.8-112.21-44.31-11.53-186.67-11.53-194.49,30.17-106.7,30.17-106.7-23.17-107.23-6.7-137.43c13.55-24.85,46.54-49.22,62.62-58.5,4.17-2.42,49.1-3.48,60.32-6.85,8.71-2.62,9.26-19.11,9.26-19.11s57.45-9.9,67.91-3.86C3963.16,1672.52,3959.26,1668.49,3963.16,1672.52Z"/><path class="cls-156" d="M3873.49,1639.84l1.68,30.72s-20.45,17.78-41.23,20.77-35.26,4.47-35.26,4.47v-50.93Z"/><path class="cls-143" d="M3794.72,1839.28s-34.94,101.62-46.92,113c-32.69,31-118.16,9.92-124,0s-12.57-29.19,12.57-40.92,56-6,56-6,19.43-142.29,51.28-161.57S3810.64,1758.84,3794.72,1839.28Z"/><path class="cls-148" d="M3881.34,1664.24s-5.68-13.16-7.42-11.93-5.94,11.2-21.8,15.51-50.86,5.4-55.24,11.69-9.28,21.18-9.28,21.18,64.41-5.68,76.56-17.83S3881.34,1664.24,3881.34,1664.24Z"/><path class="cls-143" d="M3907.85,1659.49l-32.68-3.73s3.35,9-18.44,16.55-40.69,9.43-58.05,15.3-38.65,41.58-38.65,41.58,25.47-24.82,48.94-20.63,40.05-1.71,55.14-8.71C3900.14,1683.12,3907.85,1659.49,3907.85,1659.49Z"/><path class="cls-149" d="M3781.31,1609.68c0-1.26-6.86-25.47-5.44-32.69a76.66,76.66,0,0,0,.84-16.34s1.23-34.6,34.35-42.67c28.49-6.94,54.89-4.67,78.35,29.27,18.63,26.94,7.92,56.43,5.87,62.43-5.26,15.38-13.83,33.52-20.11,36s-47.35,11.31-55.73,8.38-18.84-8.8-20.76-11.31S3781.31,1609.68,3781.31,1609.68Z"/><path class="cls-156" d="M3776.71,1560.65s-5,8-3.36,16.34,1.34,8.38,1.51,14.25-2.76,2.51.17,11.73,5.86,22.63,6.28,29.33,17.18,18.07,21.37,19.93,16.76,1.86,16.76,1.86l-16.46-9.51s4.44-1.8,2.22-10.6-4.54-15.5-9-15.92-4.44,5.44-4.44,5.44-10.9-23.88-12.15-28.91S3776.71,1560.65,3776.71,1560.65Z"/><text class="cls-158" transform="matrix(0.88, -0.51, 0, 1, 761.57, 802.06)">KE = 1/2mv²</text><text class="cls-159" transform="matrix(0.88, -0.51, 0, 1, 603.69, 1108.14)">1/2 x 795 x 320 =3140741 J</text></g></g></g></svg>